<?xml version="1.0" encoding="UTF-8"?>
<svg id="Capa_1" data-name="Capa 1" xmlns="http://www.w3.org/2000/svg" viewBox="0 0 2583.04 2060">
  <defs>
    <style>
      .cls-1 {
        fill: none;
      }
    </style>
  </defs>
  <rect class="cls-1" width="2583.04" height="2060"/>
  <path d="M850.23,677.26c-.26.08-.52.17-.79.25.24-.18.52-.22.79-.25Z"/>
  <path d="M979.12,694.26c-3.39-6.05-7.71-11.42-12.26-16.61-5.85-6.67-13.26-9.36-21.94-7.76-6.54,1.2-12.83,1.37-19.26-.71-4.03-1.3-8.3-1.8-12.44.1,1.81.21,2.19,1.57,2.45,3.04,3.17.48,6.33,1.09,9.52,1.43,6.07.63,9.29,4.04,10.1,9.94.58.34.7.89.7,1.5,2.2,1.63,4.61,3.07,6.58,4.96,5.77,5.51,3.66,13.96-4.03,16.15-3.7,1.06-7.01,2.54-9.44,5.67-1.1,1.43-2.78,2.35-4.51,2.47-6.1.42-12.27.97-18.01-2-1.99-1.02-4.06-1.01-6.21-.99-5.21.04-9.19-2.28-11.65-6.83-1.53-2.81-2.13-5.64.45-8.63,2.88-3.34,2.96-7.85,3.72-12,.37-2.08.7-4.18,1.05-6.28-.28-.01-.56-.03-.84-.04-.24,1.17-.63,2.17-1.36,1.88-1.37-.56-.15-.99.33-1.36.27-.21.61-.35.98-.54-1.55-3.63-3.84-1.83-6.02-.81,2.74,6.3-.39,13.87-6.48,16.04-9.03,3.25-18.53,2.73-27.84,3.51-7.54.63-14.85,1.46-21.69,5.14-7.65,4.12-16.21,5.69-24.49,8.03-.73.2-1.59.71-2.06-.01-.72-1.08.52-1.5,1.1-1.99,6.55-5.46,12.96-11.1,19.74-16.23,8.81-6.67,18.79-8.32,29.53-5.69,6.9,1.7,13.8,2.69,20.25-1.62.01-2.65-4.77-4.86-.58-7.65-.92-1.47-1.79,1.1-2.58-.27-1.47,1.61-3.01.52-4.5.08-2.5-.73-4.97-1.56-7.6-2.41,1.9-4.05,5.13-3.58,8.39-3,.7-.47,2.02-.99,1.99-1.38-.42-4.67,3.31-4.36,6.05-5.24-2.6-2.65-6.02-.38-8.9-1.47-1.18-.45-3.34.25-3.33-1.52.01-1.61,2.06-1.47,3.36-1.52,1.36-.06,2.77.06,4.09.35,3.04.69,6.06,1.5,9.08,2.32,9.98,2.73,19.57,2.53,28.39-3.64,4.39-3.07,5.89-7.31,4.51-12.42-.98-3.61-2.15-7.17-3.77-10.56-2.63-5.52-6.57-9.48-12.41-11.86-8.72-3.55-17.59-5.42-27.03-5.01-6.04.26-9.26,3.01-9.57,9.15-.12,2.4-.3,4.74-1.6,6.85-1.79,2.9-2.29,6-1.59,9.37.35,1.68.74,3.51-.72,4.98-3.76,3.73-8.21,5.89-14.65,6.2,2.06-1.24,3.23-1.86,4.32-2.61,5.23-3.68,6.94-8.94,6.78-15.05-.12-5.05-4.51-5.35-7.73-6.96-.11-.06-.2-.17-.31-.19-2.11-.65-1.65-1.8-.56-3,1.57-1.72,3.85-2.27,5.79-3.36,1.77-1,4-2.4,3.26-4.45-.62-1.72-3.12-.69-4.7-.45-4.96.73-9.61,2.72-14.43,3.98-6.07,1.59-6.09,1.53-6.12-4.69-.08-11.35-10.66-18.45-21.23-14.16-2.61,1.07-5.08,2.52-7.95,3.95.34-2.02.65-3.73.9-5.44.72-4.96,1.74-9.88-1.59-14.47-4.05-5.55-4.49-5.66-8.8-.65-.07.08-.18.13-.28.2-9.53-9.97-22.25-11.34-32.28-3.71-5.01,3.8-7.36,8.99-8.76,14.83-1.68,6.94,1.19,12.36,6.56,17.46-2.17-.17-3.5-.27-4.84-.37-5.67-.43-10.97-.2-12.67,6.82-.47,1.97-1.69,1.23-2.87.61-3.41-1.81-4.92-5.25-7.12-8.1-.81-1.03-1.74-2.68-3.12-2.02-1.21.58-1.06,2.42-.97,3.79.04.73.35,1.45.56,2.17.94,3.24,1.83,6.49,2.89,9.69.39,1.17.45,1.83-.93,2.15-4.72,1.07-9.17,3.3-14.13,3.4-6.3.11-9.99,2.58-12.16,8.67-.65,1.84-1.43,2.06-3.18,2.13-5.78.18-9.64-3.69-14.22-6.14-2.74-1.47-4.58-3.23-5.29-6.31-.75-3.3-2.81-5.89-6.18-6.36-6.76-.93-13.6-2.55-20.32.53-1.09.49-2.44.74-3.66.67-4.78-.26-8.23,1.65-10.39,5.92-.54,1.06-1.3,1.81-2.26,2.45-10.36,7.14-15.21,16.74-12.91,29.42.33,1.79.09,2.47-1.91,2.29-3.31-.29-6.65-.16-9.09,2.51-2.01,2.19-4.2,2.52-7.08,2.08-6.61-1-10.56,2.59-10.71,9.26-.02,1.12-.06,2.27.12,3.39.28,1.68-.25,2.65-1.99,2.83-2.5.26-3.27,1.84-3.43,4.14-.17,2.5-1.01,4.34-3.86,5.26-2.92.96-3.43,4.3-1.34,6.83.94,1.15,2.18,2.06,3.34,3.04,3.45,2.9,3.98,5.16,2.23,9.21-.92,2.13-2.54,3.69-4,5.41-2.47,2.91-5.77,5.52-3.86,10.15.33.79-.37,1.42-.97,1.88-2.9,2.25-3.23,5.34-2.41,8.5.83,3.21-.18,5.64-2.25,7.89-2.13,2.32-4.07,4.75-5.58,7.53-3.52,6.46-3.04,10.65,1.97,15.98,1.06,1.11,2.41,2.22,2.36,3.71-.17,5.68,1.68,10.36,7.45,14.14-4.34,0-7.35,0-10.35.01-.63,0-1.34.04-1.45.83-.1.74.42,1.02,1.09,1.23,2.38.72,4.71,1.69,7.14,2.22,12.6,2.74,25.31,4.92,38.07,6.68,12.89,1.79,25.75,1.6,38.36-2.19,11.83-3.55,23.8-6.76,35.47-10.81,8.7-3,16.56-1.29,23.62,3.28,15.87,10.27,30.87,21.87,46.75,32.16,2.71,1.75,3.8,4.32,3.88,7.65.22,9.53.81,19.06,1.12,28.58.15,4.41.02,8.84.02,13.25-4.12-6.42-9.62-11.06-16.06-14.54-5.23-2.83-9.9-6.37-14.39-10.19-8.89-7.56-17.74-15.16-26.63-22.73-8.3-7.08-16.61-14.15-24.96-21.18-3.44-2.89-7.22-4.98-11.99-4.14-2.43.43-4.25,1.79-4.99,4.05-.74,2.25,1.24,3.37,2.69,4.5,5.93,4.63,11.93,9.15,17.86,13.78,2.52,1.97,4.79,4.18,6.37,7.45-37.36-7.9-74.61-14.16-112.15-2.81.56,1.01,2.07,2,3.9,2.51,6.4,1.78,12.06,5.04,16.92,9.43,12.38,11.21,26.5,19.74,41.54,26.74,10.73,5.01,21.02,11.15,32.64,14.04,13.22,3.28,26.46,6.48,39.78,9.31,10.63,2.27,19.72,6.81,27.06,14.97,4.95,5.5,10.41,10.53,16.2,15.16,7.37,5.91,15.24,6.96,23.8,2.77,11.92-5.85,20.87-14.6,26.33-26.74,2.01-4.48,4.61-8.37,9.61-9.88,8.74-2.65,16.45-7.19,23.78-12.52,10.55-7.67,22.18-12.98,35.04-15.53,12.41-2.47,24.9-4.3,37.4-6.14,21.62-3.18,40.56-12.25,57.12-26.4,1.45-1.24,4.25-2.38,3.45-4.27-.79-1.86-3.68-1.56-5.82-1.43-7.38.52-14.7,1.57-22.13,1.65-6.42.08-12.68-1.52-19.13-1.18-14.41.75-28.83,1.24-43.25,1.87-22.43.99-42.64,7.1-57.9,24.87-1.44,1.68-3.28,3.23-6.65,2.74,4.54-4.07,6.96-8.94,10.81-12.77,4.45-4.43,9.26-8.46,14-12.54,9.87-8.47,20.18-16.36,30.97-23.66,3.49-2.36,6.72-5.23,9.44-8.56,1.65-2.02,2.31-4.14.49-6.46-1.83-2.34-3.73-1.06-5.71-.27-10.56,4.21-19.1,11.59-27.42,18.84-12.18,10.61-23.5,22.22-34.38,34.24-8.92,9.85-16.31,20.93-25.33,30.7-1.36,1.47-2.34,3.22-2.9,5.2-.39,1.38-.85,2.82-2.64,3.75-.74-15.05-1.43-29.82-2.18-44.58-.25-4.87,1.96-8.14,6.28-10.1,1.82-.82,3.68-1.55,5.55-2.27,15.59-6.05,29.27-14.75,39.29-28.48,1.5-2.05,3.41-3.7,5.53-5.04,8.37-5.28,17.45-8.84,27.26-9.99,25.64-3.01,51.08-.7,76.39,3.52,6.12,1.02,12.1,2.77,18.26,4.22.07-2.05-.99-3.07-2.17-4-3.34-2.65-6.72-5.28-10.59-7.12-3.95-1.88-7.96-3.61-11.88-5.56-2.92-1.46-3.16-2.41-1.72-5.74,3.75,4.51,8.05,4.07,12.89,1.97,3.41-1.47,7.11-2.34,10.75-3.17,3.84-.88,6.55-2.71,8.01-6.51,1.52-3.96,3.39-7.78,5.1-11.68,1.55-3.52,1.01-6.59-1.97-9.12-2.25-1.9-3.3-4.23-3.21-7.26.12-4.57-1.1-6-5.6-6.9-2.72-.54-5.34-1.27-7.58-3.01-.58-.45-1.41-.91-.96-1.77.43-.82,1.3-.47,2.01-.3,2.65.69,5.26,1.65,7.96,2.04,6.19.87,10.61-2.22,13.94-7.05,3.75-5.46,4.24-11.19.99-17.02ZM897.08,656.55c-1.01,1.1-1.98-.33-2.89-.75-5.31-2.43-9.78-6.34-15.39-8.36-3.86-1.39-6.41-6.96-5.05-11.12,1.18,4.29,3.36,6.41,7.09,6.59.12.01.33-.03.36.03,3.52,5.56,10.55,6.36,14.8,10.9.63.69,2.17,1.53,1.08,2.71ZM869.53,627.48c1.29-2.74,3.34-3.4,6.18-2.61,4.43,1.21,8.76,2.36,12.89,4.72,2.47,1.43,5.59,1.87,8.27,3.52,6.55,4.03,7.24,10.33,7.44,16.96.05,1.61-1.05,2.32-2.95,2.88,1.46-3.24.19-5.3-1.54-7.68-1.43-1.96-1.6-4.63-3.64-6.6-6.07-5.84-13.76-8.39-21.34-11.15-2.7-.98-4.39.46-4.34,3.31.02,1.35.24,2.69.37,4.25-2.26-2.15-2.62-4.85-1.33-7.6ZM860.84,652.08c4.87-2.65,4.86-2.68,3.35-7.89-.18-.65-.3-1.19.53-1.88,1.45,1.68,2.23,3.68,2.8,5.76.8,2.86,2.68,4.36,5.59,4.72,4.11.52,7.99,1.9,11.9,3.14,1.68.53,3.18,1.37,4.09,3.67-4.2-.1-7.99-.84-11.16-2.65-6.09-3.46-11.63-2.72-17.26.74-.61.37-1.28.64-2.06,1.02-1.32-3-.58-5.12,2.2-6.64ZM880.55,788.57c.79-.45,1.93.3,1.75,1.21-.43,2.11-2.34,2.61-3.93,3.04-1.27.07-2.51-.15-2.4-1.34.26-2.64,3-2.01,4.57-2.91ZM891.3,720.06c3.43-1.1,6.88-2.15,10.35-3.18,1.61-.47,2.92.49,3.39,1.7.61,1.54-.75,2.55-2.1,2.94-2.98.83-6.03,1.48-8.18,1.99-1.66-.12-2.43-.11-3.15-.27-.7-.15-1.54-.26-1.68-1.21-.16-1.06.49-1.69,1.37-1.96ZM819.23,763.8c13.7-6.94,27.48-13.73,41.27-20.5,3.41-1.68,7.1-2.34,10.9-2.44,5.15-.13,10.32-.61,15.13-2.45,3.54-1.36,7.04-1.47,10.95-1.12-2.79,7.32-1.42,11.16,5.16,15.02,1.47.85,3.01,1.62,4.08,3.53-16.49.29-32.87-.46-48.81,2.38-15.75,2.79-31.13,7.72-46.83,11.27,2.23-2.74,5.24-4.22,8.14-5.69ZM794.58,782.82c-1.34,4.14-1.79,8.55-3.77,12.5-.42.85-.45,2.25-1.75,2.02-1.1-.19-1.05-1.55-1.3-2.43-.45-1.45-.42-2.96.05-4.44,5.13-16.58,14.09-29.54,31.44-35.53,9.47-3.27,18.1-8.49,25.83-14.98,3.49-2.92,7.22-3.53,11.61-1.77-1.03,1.96-2.74,2.7-4.39,3.53-11.92,6.03-23.87,12-35.74,18.14-9.92,5.12-18.38,11.8-21.97,22.96ZM875.18,716c.18.83.03,1.74.03,3.14.11,4.87-.85,9.93-4.72,14.03-3.68,3.89-8.63,3.16-11.11-1.62-.81-1.56-.7-2.87,1.18-3.6,4.36-1.71,5.96-5.41,6.78-9.61.26-1.36.56-2.68,1.28-3.86,1.25-2.06,3.5-2.89,5.47-2.59,2.09.29.78,2.68,1.09,4.11ZM897.46,731.73c-6.92.56-13.97.94-19.18-5.39h26.78c-1.15,4.62-4.56,5.15-7.6,5.39ZM887.07,712.31c1.28.21,2.77.81,2.98,2.72.22,1.89-3.32,4.87-5.56,4.53-1.74-.26-3.4-1.1-3.41-3.27,0-1.96,2.98-4.03,5.98-3.98ZM882.26,701.65c.4,1.24-1.41,1.45-2.32,1.88-2.15.99-4.36,1.82-6.56,2.72-1.38.56-3.04.79-4.12,1.72-9.12,7.83-20.12,13.78-25.4,25.49-2.27,5.03-6.65,8.03-11.38,10.51-9.09,4.75-18.2,9.44-27.27,14.21-9.88,5.21-18.01,12.2-22.62,22.69-.11.26-.15.81-.88.53,0-4.54-.2-9.16.05-13.76.39-7.14,6.74-13.54,14.43-14.57,3.94-.53,6.76-2.13,8.45-5.85,1.73-3.84,4.85-6.32,8.76-7.78,1.63-.61,3.31-1.17,5.02-1.5,11.21-2.18,19.54-8.31,24.38-18.62,2.62-5.59,6.57-8.56,12.44-10.18,8.05-2.2,15.89-5.17,23.82-7.8,1.09-.36,2.68-1.26,3.19.3ZM781.55,896.59c-.22,2.06-2.6,2.68-4.36,2.9-1.26.17-2.28-1.28-2.35-2.52-.49-8.31,2.09-15.78,6.56-22.74.9,7.51.97,14.95.16,22.36ZM775.18,794.05c-2.88-2.49-3.42-5.34-3.44-8.29-.08-8.41-1.19-16.74-1.99-25.08-.37-3.89-2.51-5.8-6.23-6.25-6.87-.83-12.29-3.86-15.76-10.86,8.13,2.01,16.01,3.36,20.82,10.86,2.61,4.08,4.79,4.07,7.42-.01.39-.63.72-1.3,1.08-1.97,3.43-6.15,7.76-7.76,15.03-5.39-3.77,3.44-7.22,7.08-11.62,9.47-3.88,2.13-5.4,5.23-5.34,9.53.1,9.16.03,18.3.03,28ZM760.55,776.67c-1.19.49-1.97-.17-2.61-.62-10.06-6.87-21.54-9.12-33.33-10.27-4.05-.39-7.58-1.72-10.36-4.67-5.76-6.12-11.43-12.33-17.11-18.52-1.38-1.51-1.84-3.23-.91-5.17,1.74-3.62.88-7.04-.76-10.44-3.69-7.63-9.45-13.51-15.85-18.85-4.61-3.85-9.24-7.67-14.71-12.2,10.29-.84,17.1,3.12,22.33,10.18,2,2.7,3.66,5.68,5.32,8.62,8.25,14.53,20.66,23.14,37.02,26.2,2.08.39,4.13.98,6.2,1.45,3.16.74,5.39,2.64,6.6,5.59,2.67,6.41,7.15,10.39,14.24,11.2,2.77.3,4.12,1.86,3.98,4.85-.18,4.24-.04,8.49-.04,12.65ZM711.23,763.45c-.43.99-1.63,1.08-2.63,1.07-1.33-.01-2.32-.79-3.27-1.63-4.32-3.81-8.7-7.56-13.01-11.36-3.08-2.72-3.06-2.77-.63-6.77,6.22,5.73,12.23,11.21,18.19,16.75.58.53,1.79.94,1.36,1.95ZM638.07,743.89c-1.3-.18-1.54-.71-1.37-2.01.54-4.16,3.21-6.36,7.32-5.32,4.94,1.25,9.81,2.81,14.67,4.4,1.15.37,3.19.48,2.95,2.17-.24,1.61-1.77,2.68-3.5,2.99-.85.16-1.74.12-2.76.19-5.68-.8-11.48-1.63-17.31-2.42ZM654.45,758.46c-.04,2.52-3.55,1.27-5.39,1.17-3.54-.18-2.76,3.36-4.81,4.81-2.56-6.1-1.72-7.44,4.68-7.11,1.92.1,5.56-.91,5.52,1.12ZM632.16,729.15c-.62-1.69-.42-3.06,1.23-3.78,1.86-.82,3.78-.65,5.07,1.11,1.08,1.45,1.92,3.32.22,4.72-2.74,2.27-5.57,4.32-7.93,7.1-1.79,2.11-7.09.19-7.57-2.68-.33-1.92,1.46-2.8,3.36-2.97,2.13-.2,4.14,1.12,6.4.48-.26-1.37-.34-2.76-.79-3.99ZM656.93,701.98c-.3-.88-.51-1.72.44-2.32,1.08-.7,1.64.12,2.04.9,3.8,7.39,8.83,14.17,10.97,22.4.45,1.71.76,3.67-.67,4.39-1.52.75-3.28-.24-4.47-1.81-1.86-2.5-3.86-4.89-5.83-7.32-.89-1.1-1.56-2.26-1.24-3.77.99-4.29.17-8.4-1.24-12.46ZM656.12,683.95c11.27-2.35,21.98-5.57,33.31-4.86,3.82.25,5.14-2.46,5.5-5.78.29-2.73.65-5.47.79-8.21.1-1.83.69-2.06,2.32-1.38,4.45,1.88,6.04,4.88,4.79,9.55-.33,1.2-.67,2.41-1.06,3.59-2.35,7.35-4.17,8.49-11.75,9.12-8.73.74-17.51.91-26.18,2.35-3.63.62-5.95-.92-7.72-4.38ZM671.49,737.22c1.18,1.26,2.44,2.47,3.09,5.32-9.26-6.19-18.9-9.46-28.25-13.41-2.05-.87-2.32-2.52-1.68-4.34.73-2.05,2.34-1.38,3.77-.9,8.57,2.9,16.7,6.59,23.06,13.33ZM656.97,756.42c1.77-2.7,4.15-4.57,7.19-5.75,4.41-1.72,8.88-3.39,13.09-5.52,6.46-3.25,7.66-7.56,4.11-13.87-3.62-6.42-7.42-12.74-11.73-20.1,9.11,4.62,15.03,10.9,18.75,19.08,1.92,4.23.88,8.63-1.19,12.64-2.87,5.58-7.37,9.56-13.3,11.5-5.08,1.65-10.37,2.71-15.57,4.03-.56.15-1.12.63-1.69-.04-.71-.83-.06-1.36.34-1.96ZM693.57,708.67c1.42-.27,2.32.43,3.16,1.24,14.09,6.28,28.44,12.18,39.44,24.76-4.2.63-7.39-.67-10.59-1.77-9.1-3.08-16.3-9.08-23.18-15.5-2.27-2.13-4.43-4.39-6.65-6.57-.93-.42-1.57-1.14-2.18-2.16ZM709.78,677.79c.38-3.77,1.37-4.4,4.94-3.3,3.16.97,6.39,1.34,9.63.49,2.06-.54,3.93-.4,5.78.7,7.63,4.56,15.77,8.39,22.73,13.91,7.01,5.56,11.51,13.12,12.74,22.12.56,4.05.1,8.23.1,12.35-.25.15-.49.28-.74.42-3.41-4.54-6.9-9.03-10.2-13.66-4.7-6.58-10.03-12.25-18.43-13.85-2.82-.54-5.69-1.01-8.56-1.09-3.76-.11-6.81-1.39-9.26-4.21-2.23-2.54-4.52-5.03-6.72-7.62-1.51-1.81-2.26-3.9-2.02-6.28ZM710.78,656.24c2.23-2.68,3.67-.1,5.23.98,1.01.7,1.98,1.57,2.68,2.58.85,1.21,3.31,1.79,2.36,3.72s-3.04,2.41-5.17,2.19c-1.8-.04-3.45-.56-4.84-1.7-2.11-1.75-2.27-5.38-.26-7.77ZM766.05,645.09c1.52-.42,2.58,1.07,2.69,2.01.17,1.43-1.3,2.53-2.61,2.7-1.33.18-1.97-1.26-2.69-2.38.39-1.3,1.47-2.02,2.61-2.33ZM759.26,639.49c-2.92-1.02-5.8-2.24-8.61-3.57-2.81-1.33-3.31-4.45-.81-6.16,2.86-1.96,6.18-1.59,9.3-.4,3.1,1.16,4.61,3.63,5.05,6.56-.03,2.76-2.41,4.47-4.94,3.58ZM767.9,671.93c.81,7.41,1.61,14.7,2.43,22.13-6.32-4.53-7.63-16.45-2.43-22.13ZM740.31,708.65c7.48,7.58,14.81,15.31,22.15,23.05.74.78,1.33,1.87,1.59,2.9.36,1.56.72,3.5-.85,4.51-1.95,1.24-2.88-.76-3.9-1.89-9.99-10.88-19.93-21.8-30.52-33.39,5.1.22,8.7,1.92,11.54,4.81ZM777.17,693.24c-.1-11.74-.03-23.5-.03-35.24,1.54-.12,1.33,1.05,1.61,1.77,2.22,5.55,4.09,11.21,6.43,16.73,2.71,6.37,1.26,12.65-2.59,18.14-3.63,5.17-5.05,10.74-4.8,16.94.24,5.64.24,11.27.35,16.91.08,4.14-.16,8.2-2.83,12.69-2.06-11.38-3.64-21.97-1.97-32.75.15-.97.17-2.19.76-2.82,3.35-3.6,3.1-7.94,3.07-12.36ZM786.36,652.66c-.42-1.15-.42-2.16.42-3.06.21-1.97,1.09-3.61,2.34-5.11.33-.72.79-1.95,1.55-1.38s-.06,1.61-.7,2.27c-.79,1.72-1.59,3.43-2.38,5.14-.2.79-.38,1.61-1.23,2.14ZM790.43,693.73c1.02-2.91,2.87-5.15,5.75-6.03,11.09-3.4,16.54-11.34,18.65-22.24.69-3.52,2.2-6.64,5.68-8.37,1.45-.72,2.16-1.03,2.04,1.26-.49,9.58-3.43,17.75-10.48,24.86-10.64,10.71-21.13,21.65-30.17,34.62-.9-6.88-.35-12.46,4.85-16.82,2.11-1.77,2.79-4.7,3.69-7.29ZM775.9,646.49c-4.94-3.98-5.05-12.41,0-17.46v17.46ZM819.1,725.8c2.18-1.18,4.41-2.28,6.61-3.41,1.33-.69,2.43-.18,3.37.74.98.97.52,2.06.06,3.12-1.16,2.58-5.1,4.95-8.23,4.95-1.78.1-3.28-.42-3.82-2.25-.51-1.69.81-2.49,2.01-3.15ZM850.76,700.1c2.67-.76,3.93.71,5.52,2.04.83.69.4,1.21-.06,1.88-.85,1.19-2.04,1.81-3.4,2.18-16.97,4.72-31.96,13.36-46.23,23.42-2.47,1.74-5.11,2.9-8.31,2.97.2-2.45,1.61-3.85,3.06-5.22,14.11-13.36,30.87-21.9,49.42-27.27ZM821.5,688.23c-.72.85-1.48,1.72-2.37,2.41-11.32,8.62-19.85,19.67-27.6,31.43-.44.67-.7,1.66-1.81,1.6-1.05-.71-.15-1.29.1-1.89,6.4-15.39,17.28-27.06,30.56-36.73,1.32-.96,2.56-2.01,3.91-2.91,5.16-3.39,7.39-7.81,5.77-14.09-.61-2.35-.12-4.98-.1-7.48.01-.76.2-1.51,1.16-1.65,1.08-.17,1.2.78,1.41,1.41,1.12,3.45,1.98,6.96,1.86,10.65-.1,3.03.42,5.79,5.1,7.02-8.03,1.56-13.53,5.01-17.98,10.25ZM855.58,676.77c-2.06,1.61-4.11.65-6.13.74-1.89.3-3.6-.4-5.37-.92,1.26-.3,2.51-.49,3.75-.49,1.35,0,2.68.21,4,.67h3.75ZM844.14,660.86c3.93-.13,7.2,2.83,7.48,6.85.11,1.56-3.24,4.57-5.17,4.63-2.25.08-4.77-4.69-4.86-8.97-.18-2.11,1.01-2.45,2.55-2.52ZM844.16,647.3c-2.74,3.9-5.83,4.65-10.48,2.19,3.97-.83,7.06-1.48,10.48-2.19ZM836.85,636.07c2.31-.04,6.12,3.23,6.4,5.42.12,1.02-.67,1.23-1.25,1.61-3.5,2.31-7.56,2.68-11.52,2.76-2.64.06-2.52-2.34-1.89-4.25,1-3.05,4.72-5.47,8.26-5.53ZM828.45,631.21c.51-.28.92-.92,2.17-.12-3.16,4.7-6.59,9.12-10.26,13.34-5.79,6.67-10.69,13.86-13.7,22.24-1.79,4.96-5.31,8.76-8.92,12.41-2.43,2.45-4.78,1.92-6.31-1.17-1.26-2.56-2.24-5.29-3.41-7.91-.88-1.95-.07-2.91,1.79-3.14,6.77-.82,10.75-5.23,14.21-10.59,6.45-9.99,13.9-19.04,24.43-25.06ZM822.52,612.95c1.91,6.78.67,11.79-3.08,13.59.98-4.35,1.92-8.49,3.08-13.59ZM808.82,609.1c.06-.28.44-.7.65-.69,2.96.12,5.94-.87,9.73.06-3.54,1.97-6.65,1.17-9.56,1.53-.56.07-.94-.33-.82-.9ZM808.64,620.01c2.1-2.04,4.68-3.23,8.12-4.17-.43,4.32-.66,8.19-1.23,12-.49,3.4-3.68,4.52-6.34,2.45-3.76-2.96-3.99-6.96-.55-10.28ZM805.13,637.11c1.72-.52,3.84-.61,4.85.93,1.01,1.55-.92,2.61-1.91,3.55-4.34,4.09-8.99,7.81-15.42,10.32,2.59-5.49,5.56-9.71,9.67-13.05.85-.69,1.79-1.45,2.81-1.75ZM801.05,634.2c-2.05,1.52-4.09,3.01-6.13,4.53-.21-.26-.42-.52-.62-.78,1.36-2.37,3.21-4.17,6.75-3.76ZM787.93,604.46c.44-2.23,1.35-4.45,4.18-4.43,1.64.01,2.81,1.01,2.82,2.79.02,2.45-2.55,5.34-4.63,5.22-1.62-.54-2.72-1.79-2.37-3.58ZM791.58,621.98c1.89,1.38,2,3.44,1.3,5.41-.65,1.87-1.68,3.61-2.61,5.38-1.92,3.64-3.85,7.29-5.87,10.88-.79,1.42-2.05,3.07-3.7,2.5-1.5-.52-.3-2.45-.52-3.75-.07-.36.02-.74.08-1.92.39-2.91.24-6.72,1.34-10.35.88-2.94,2.26-5.57,4.83-7.38,1.57-1.11,3.27-2.15,5.15-.76ZM776.6,596.26c.07-.35.22-.72.43-1.03,1.06-1.59.11-4.66,2.92-4.81,2.27-.12,5.03,3.97,5.03,6.59-.16,2.08-.57,3.82-2.63,4.72-2.01.88-3.72-.03-5.24-1.01-1.73-1.12-.82-2.9-.51-4.45ZM773.46,606.07c.54-.33,1.02-.61,1.74-.4,2.05.56,7.2,7.46,7.12,9.88-.52,3.42-1.83,6.46-5.52,8.08-2.86,1.26-4.79-.33-6.81-1.81-.57-.42-1.09-1.07-1.36-1.72-1.18-2.83,2.15-12.36,4.83-14.02ZM762.61,591.92c1.48-2.97,4.43-3.9,7.26-4.74,1.41-.42,1.08,1.32,1.38,2.15.37.99,1.28,2.27-.17,2.94-2.14.96-4.43,1.57-6.22,2.19-2.25-.04-3.18-.69-2.25-2.54ZM756.99,595.1c2.34,4.34,7.44,7.32,6.52,13.25-3.61-3.71-7.28-7.4-6.52-13.25ZM746.89,621.92c3.14.01,5.96.99,8.52,3.19-2.81,0-5.64.06-8.45-.03-.81-.02-2.26.63-2.23-1.05.03-1.23.78-2.11,2.16-2.11ZM747.08,648.42c4.75,5.34,10.01,9.87,17.51,10.68,1.53.17,1.75.8,1.17,2.19-1.83,4.4-4.52,5.17-8.49,2.33-5.51-3.95-9.34-8.74-13.26-16.63,1.82-.56,2.36.64,3.07,1.43ZM743.77,655.54c3.93,4.38,7.85,8.75,11.78,13.13.69.76,1.33,1.52,1.19,2.63-.1.81.35,1.84-.62,2.36-.81.43-1.42-.25-2-.67-3.72-2.73-7.48-5.44-11.16-8.27-3.14-2.41-1.88-5.24.81-9.18ZM739.87,667.97c4.09,2.83,8.13,5.76,12.23,8.58,1.37.94,2.2,1.99,1.37,4.2-5.39-3.16-10.64-6.23-15.88-9.31-1.56-.92-2.65-2.43-1.57-4,1.17-1.7,2.69-.27,3.86.54ZM722.77,640.27c1.23-.96,2.67-.49,3.95-.03,6.34,2.27,10.12,9.72,8.55,16.47-.89,3.79-2.74,6.72-6.59,7.93-2.22.7-3.69.15-3.59-2.59.08-2.25.02-4.51.01-6.76-.09-4.21.56-8.54-2.19-12.31-.53-.73-1.19-1.88-.13-2.71ZM721.71,648.02c1.21.61,1.78,4.24.15,5.39-2.81,1.98-4.6-1.64-8.23-2.47,3.43-1.3,5.41-4.26,8.09-2.91ZM710.77,640.76c2.54-.3,4.89.64,8.03,1.07-2.63,3.23-5.38,5.57-8.32,7.46-2.62,1.68-3.37-1.2-3.98-2.87-.98-2.68,1.14-5.28,4.27-5.66ZM737.68,720.86c4.41,3.16,7.69,7.51,11.15,11.65.48.58,1.7,1.08.82,2.11-.65.78-1.69,1.29-2.7.85s-2.01-1.06-2.79-1.84c-13.89-14.16-31.16-23.31-48.27-32.72-1.75-.97-3.46-1.99-5.16-3.05-1.21-.75-2.5-2.01-2.15-3.25.39-1.38,2.23-1.19,4.05-1.17,4.48.55,9.08,2.17,13.13,4.97,10.71,7.39,21.35,14.86,31.92,22.44ZM696.03,649.9c2.22.3,4.36,1.17,6.14,2.59,1.35,1.08,3.18,2.37,2.47,4.18-.55,1.41-2.7.57-3.89.96-3.23-.11-5.91-.97-7.39-3.88-1.32-2.61-.24-4.25,2.67-3.85ZM685.86,668.83c-2.09,1.14-4.61,1.63-5.76-.94-1.01-2.27-.03-4.35,2.77-5.07,2.36-.6,4.69-1.34,7.58-2.16-.79,3.75-1.7,6.6-4.59,8.18ZM674.79,651.76c4.53-6.19,3.52-6.09,8.99-1.8,1.63,1.27,3.63,2.88,2.92,5.22-.7,2.32-3.32,2.25-5.28,2.83-.94.28-1.98.21-3.19.34-1.54-.35-3.86.6-4.86-1.44-.92-1.86.34-3.68,1.42-5.15ZM673.83,666.6c.79,1.5.1,2.86-1.18,3.95-4.24,3.6-9.21,5.31-13.89,5.75-1.03,0-1.28-.01-1.54.01-2.56.1-5.3-.72-5.73-3.13-.4-2.32,2.15-3.68,4.35-4.42,2.67-.89,5.23-1.95,8.25-1.01,2.19.69,4.34-.66,6.5-1.19.97-.25,2.41-1.55,3.24.04ZM630.75,644.52c4.66-4.5,9.24-9.2,15.74-11.11.58-.17,1.24-.13,2.14-.21,1.7.67,3.4-.56,5.13-.76,4.81-.56,10.2.08,14.18,2.13,3.37,1.73,5.74,6.59,4.25,11.52-.4,1.34-.91,2.61-2.63,2.72-1.72.12-2.05-1.17-2.44-2.34-.51-1.54-1.37-3.17-1.23-4.67.29-2.95-1.36-3.61-3.59-3.98-2.72-.44-5.42-.96-8.16-1.27-4.18-.48-7.74.34-9.46,4.84-.79,2.06-2.83,2.79-4.61,3.62-2.29,1.08-4.63,2.02-5.76,4.52-.46,1.02-1.28.97-2.17,1.02-1.34.08-1.27-.99-1.5-1.74-.43-1.42-1.07-3.15.1-4.27ZM656.24,645.68c-2.81-.3-5.38.78-8.31.93.85-2.47,1.68-4.79,4.56-5.08,3.75-.37,7.3.46,9.85,3.32,1.79,2,.24,4.45-3.36,5.85-.29.47-.85.76-1.18.39-.83-.96-.43-1.98.16-2.94.19-1.35.16-2.26-1.71-2.47ZM629.21,653.75c.74-.76,1.35.64,1.84,1.29,4.15,5.53,6.07,5.98,12.25,2.83,1.56-.8,3.07-1.68,4.61-2.5,3.13-1.66,5.98-1.73,8.21,1.48,1.21,1.75,2.65,2.09,4.48.97,1.93-1.2,4.08-1.56,6.5-1.56-.85,3.57-3.14,5.1-6.38,5.58-9.52,1.43-19.01,2.89-28.54,4.27-3.09.45-5.96-1.99-6.56-5.37-.56-3.22,1.7-5.11,3.58-7.01ZM646.96,674.84c-.11,1.28.19,2.81-1.24,3.32-1.5.54-1.63-1.19-2.34-1.91-.61-.61-1.12-1.34-1.56-2.08-.79-1.3-2.33-2.78-.26-4.07,1.98-1.21,3.53-.04,4.75,1.59.72.98.56,2.14.65,3.16ZM606.07,678.95c1.99.28,2.9-.83,3.9-2.23,3.63-5.01,7.03-5.68,12.11-2.27,1.27.85,1.93.85,3.17-.01,3.68-2.56,8.88-2.28,12.14.45,1.17.98,1.18,1.21.38,6.55,2.77.44,5.23-3.06,7.54-.64,2.07,2.18-1.27,4.15-1.27,6.43.93.57,1.97.38,2.87.07,1.79-.62,3.81-1.77,4.92.55,1.03,2.23.81,4.68-1.03,6.65-2.78,2.95-8.17,2.71-11.09-.51-.51-.55-.88-1.21-1.28-1.84-7.18-10.87-17.93-13.1-28.82-5.96-1.36.9-2.62,1.95-3.98,2.85-3.12,2.08-4.99,1.38-6.04-2.25-1.73-5.88.51-8.65,6.49-7.83ZM615.84,699.12c2.27,3.81,6.63,5.75,10.53,4.61,4.9-1.43,6.01-3.88,4.14-8.66-.45-1.15-2.35-2.77-.26-3.79,1.98-.97,3.6.35,4.56,2.2,1.47,2.85.97,5.61-.64,8.19-1.98,3.17-4.75,5.15-8.67,4.92-2.77-.16-5.42-.88-8.01-1.89-5.13-2.01-7.17-5.22-5.94-9.34,1.18-3.94,4.94-5.71,10.36-4.71-.97,2.08-2.83,2.64-4.54,3.36-2.61,1.11-2.88,2.81-1.52,5.11ZM594.44,695.09c.7-1.1,1.77-1.86,3.15-1.68,1.38.18,1.65,1.36,1.83,2.5.39,2.34.47,4.77,1.19,7,2.79,8.74,12.06,13.18,21.6,10.48,2.41-.69,4.68-1.75,7.08-2.42,3.75-1.03,6.92-.26,12.02,2.76-.52-2.52-1.01-4.7-1.43-6.88-.63-3.27,1.06-4.96,4.05-5.6,2.63-.57,5.89,1.34,6.59,3.77,1.34,4.57.16,7.5-3.98,9.99-.54.33-1.41.54-1.55.98-1.59,4.88-5.28,4.44-9.13,3.81-1.86-.29-3.41.4-4.63,1.88-3.16,3.79-5.78,4.6-9.91,2.13-2.62-1.56-4.36-1.5-6.88.12-3.28,2.1-6.77,1.01-9.88-.99-1.59-1.02-3.13-2.06-5.06-2.29-3.68-.44-5.1-2.95-5.32-6.22-.36-5.12-.49-10.27-.74-15.39-.06-1.42.27-2.76,1.01-3.94ZM593.7,729.41c2.23-2.02,5.1-2.5,7.96-2.79.65.08,1.34.01,1.88.24,1.39.61,3.8.38,3.9,2.04.1,1.66-1.79,3.13-3.4,3.6-2.43.72-4.59,1.92-6.91,2.83-1.72.67-3.66.78-4.75-.93-1.21-1.89-.12-3.68,1.3-4.98ZM601.08,790.79c-3.23,1.83-6.85,2.25-10.5,2.77-1.97-.39-4.25-.56-4.02-3.39.25-2.89,2.64-3.93,4.87-3.33,2.52.67,4.59.6,6.77-.66.4-.24.98-.26,1.47-.24,1.83.1,4.43.02,4.92,1.68.57,1.93-2.09,2.36-3.52,3.17ZM620.75,796.08c-2.1.22-4.31,1.01-5.49-1.68q-1.56,1.1-2.23-.35c-2.63-5.8-2.63-5.83,2.17-8.9.97-.62.19-1.28-.02-1.92-5.01-.03-10.05.18-14.57-2.55-.55-.33-.97-.45-1.66-.12-5.1,2.34-12.77.54-17.12-3.93-4.15-4.25-5.48-10.52-2.61-15.57,2.43-4.27,4.43-8.53,5.41-13.43.72-3.64,2.81-6.57,7.58-6.13,2.73.26,5.32-1.23,7.85-2.31,8.95-3.82,17.15-1.37,25.05,3.04,2.27,1.26,3.51,3.48,3.75,6.19.37,4.06,1.68,7.82,4.03,11.16,1.52,2.16,1.46,4.44.75,6.83.58.33,1.36.35,1.25,1.47-.46,4.34,1.25,5.94,5.56,5.28,1.45-.21,1.81,1.08,2.61,1.77,10.74-.3,19.79-4.68,27.73-11.65.37-.33.71-.72,1.12-1,3.52-2.36,5.95-7.78,10.77-6.48,6.37,1.72,12.14,5.23,16.01,11.24-25.23,11.96-49.54,25.97-77.93,29.06ZM658.18,794.34c1.46-3.75,3.23-6.12,6.09-7.17,12.05-4.4,23.8-9.82,36.56-11.93,13.66-2.26,27.36-3.3,40.69,1.98,1.09.43,2.46.58,3.49,2.56-30.19-2.41-58.47,3.97-86.82,14.56ZM744.78,807.5c-6.43-6.69-12.43-12.95-18.1-18.85,9.2.35,18.52,9.42,18.1,18.85ZM674.49,808.01c-2.01-.3-4.26.18-5.8-1.68-.42-.49-.33-1.26.26-1.65,2.11-1.39,4.03.24,5.98.63.85.17,2.65-.17,2.51,1.53-.16,2-1.86.97-2.95,1.17ZM679.25,814.99c-.94-.74-2.01-1.5-2.31-3.06,2.11-.93,3.5.42,4.84,1.54,24.72,20.63,50.02,40.62,72.1,64.23,1.97,2.1,4.04,4.12,6.2,6.03,2.61,2.31,3.32,5.02,2.42,8.32-.38-.09-.74-.08-.82-.21-7.74-14.3-20.5-23.8-32.52-33.98-16.72-14.21-32.68-29.28-49.91-42.87ZM623.04,826.57c22.6-.33,44.17,4.75,65.27,12.38,3.4,1.23,6.87,2.36,10.39,3.1,5.79,1.2,10.01,4.81,14.7,8.56-3.35,1.65-6.12,1.61-9.03-.22-5.67-3.59-11.74-5.93-18.65-5.34-3.34.28-6.48-.58-9.49-1.86-17.53-7.37-35.92-11.36-54.62-14.16-1.16-.17-2.55.21-3.35-1.24,1.28-1.7,3.09-1.2,4.79-1.23ZM728.01,882.23c-6.21-2.94-12.68-4.57-19.58-4.21-14.68.74-28.3-2.79-40.79-10.44-9.12-5.59-18.94-9.52-29-12.95-2.25-.76-4.57-1.52-6.39-3.06-7.36-6.27-16.01-10.15-24.85-13.7-3.36-1.36-6.66-2.91-9.29-5.53-.7-.69-1.73-1.42-1.29-2.49.48-1.18,1.75-.69,2.7-.62,9.92.71,19.4,3.57,28.91,6.12,37.93,10.15,73.88,25.24,108.36,43.93,6.57,3.57,11.79,8.76,17.27,13.91-4.21.65-7.86-.72-11.32-2.7-4.89-2.79-9.62-5.86-14.72-8.27ZM764.23,914.98c-1.79,1.44-3.39,1.21-4.62-.11-4.89-5.3-9.61-10.77-14.39-16.18.21-.3.42-.61.63-.9,6.5.42,12.91,1.28,18.36,5.35,5.22,3.91,5.11,7.76.02,11.83ZM760.49,812.46c-1.95-1.92-3.89-3.97-5.31-6.29-4.74-7.74-10.03-14.89-18.03-20.02,3.23-1.05,6.29-1.15,9.4-.42,7.6,1.79,14.45,5.37,21.36,8.83,2.49,1.24,4.45,3.41,4.44,6.1-.01,7.17,3.62,12.23,9.24,17.02-8.47,1.87-15.38.44-21.1-5.22ZM773.3,838.14c0-2.68.52-4.87,3.72-4.86,3.15.01,3.41,2.27,3.35,4.71-.15,7.12-.24,14.25-.35,21.37-.1,5.52-1.2,10.8-3.64,16.18-2.87-2.56-3.3-5.47-3.27-8.54.07-9.62.18-19.25.19-28.86ZM870.43,795.3c1.06-.81,2.6-.66,4.61.03-9.58,5.16-16.56,13.16-25.85,17.85-.25-.3-.49-.61-.75-.91,7.32-5.67,14.6-11.39,21.99-16.97ZM847.72,814.53c-1.93,3.18-4.16,4.76-6.69,6.28.31-2.92,2.05-4.66,6.69-6.28ZM824.92,835.98c.36-1.5,1.77-2.13,2.68-3.15,2.23-2.54,3.59-6.03,7.44-6.78.01-.02.02-.05.03-.07.03-.01.06-.02.09-.03.87-2.06,2.47-3.45,4.59-5.21-.42,3.32-2.26,4.5-4.59,5.21-.01.03-.03.06-.03.08-.03,0-.06.01-.08.01-1.11,3.44-4.08,5.3-6.54,7.6-.92,1.11-1.72,2.36-3.25,2.74-.26.74-.72,1.25-1.54,1.29-.11,0-.37-.36-.34-.49.17-.79.76-1.14,1.54-1.2ZM819.81,841.8c.53-1.01.65-2.34,2.17-2.79.39,1.38-.74,1.96-1.26,2.79-.54,1.08-1.16,2.06-2.82,2.45.2-1.38,1.09-1.89,1.91-2.45ZM817.63,845.05c-3.52,4.96-6.14,10.66-11.52,14.03,3.23-5.19,6.57-10.27,11.52-14.03ZM813.35,866.49c12.95-13.51,29.11-20.98,47.2-24.54,28.74-5.68,57.78-9.56,86.8-13.57,1.74-.24,3.5-.3,5.25-.36.85-.03,1.83-.08,2.27.9.47,1.03.13,1.95-.58,2.76-1.06,1.17-2.38,1.66-3.93,1.98-10.53,2.16-21.02,4.45-31.55,6.61-2.28.47-4.45.67-4.74,3.69-.15,1.51-1.19,1.32-2.17.69-1.78-1.16-3.57-2.31-5.3-3.54-2.29-1.64-4.39-1.43-5.68,1.03-1.77,3.39-4.63,4.51-8.1,5.31-11.92,2.77-23.8,5.74-35.85,7.99-6.39,1.19-11.59,4.54-16.12,9.07-3.31,3.3-6.78,6.34-11.47,7.55-.76.2-1.72,1.16-2.32.09-.36-.65-.28-1.75-.02-2.52.85-2.51,2.92-4,4.98-5.46,1.63-1.16,3.42-2.17,3.68-4.72-2.01-.89-3.39.08-4.96,1-9,5.25-15.25,13.31-21.8,21.07-1.61,1.9-3.06,3.95-5.78,5.4,1.46-8.11,4.79-14.79,10.19-20.42ZM800.26,874.79c-.39,5.92-2.74,10.35-6.69,15.17-.45-6.81,1.66-11.35,6.69-15.17ZM797.05,894.5c.98-.63,1.95-1.87,3.3-1.05,1.29.79.74,2.25.88,3.33-.12,6.73-5.7,14.71-11.81,17.17-1.5.61-2.95.47-4.39.07-3.06-.87-6.06-1.19-9.17-.06-2.08.76-2.77-.45-2.43-2.36.3-1.7,1.32-2.85,2.79-3.77,6.96-4.42,13.87-8.91,20.83-13.33ZM803.97,815.22c-5.23,2.71-11.08,2.88-16.72,3.08-2.46.08-2.19-3.63-3.61-5.79,6.34-1.07,12.33-2.11,18.34-3.07,1.59-.26,3.43-.52,4.14,1.51.7,2.02-.56,3.45-2.15,4.27ZM831.57,786.76c-4.8,2.08-9.67,4.03-14.5,6.07-1.37.58-2.79,1.17-3.96,2.06-1.21.92-3.72,1.56-3.09,3.21.65,1.72,2.86.35,4.39.29,1.87-.06,3.72-.22,5.66-.35-1.36,4.92-4.89,6.93-9.61,5.6q-7.48-2.09-12.7-.45c-.87-1.51.18-2.63.83-3.77,1.83-3.26,3.84-6.43,5.61-9.74,2.52-4.62,6.57-7.05,11.56-7.17,8.14-.19,16.25-.35,24.17-2.54.28-.08.64.1,1.42.26-3.13,2.83-6.25,4.99-9.79,6.52ZM933.79,775.6c-.83-.07-1.73.01-2.41-.66-13.49-.97-26.9-3.05-40.46-3.1-12.73-.06-25.2,1.59-37.13,6.28-.7.28-1.33.75-2.01.03-.21-.8.31-1.09.89-1.42,14.72-8.29,30.23-12.16,47.22-9.26,9.61,1.63,19.44,1.83,28.79,4.98,1.65.56,3.28,1.17,4.92,1.77.39.25,1.06.42,1.15.75.19.69-.52.65-.94.63ZM958.13,726.84c2.73.94,3.82,3.81,3.34,6.55-.97,5.42-1.86,10.83-2.38,16.32-.19,2-1.54,3.7-3.39,4.75-3.58,2.04-7.14,4.11-10.8,6.02-3.1,1.63-6.29,1.65-9.21-.46-1.24-.9-2.17-1.03-3.68-.43-8.81,3.52-14.32,1.17-17.75-7.59-.58-1.51-1.66-1.3-2.56-1.69-4.41-1.9-6.79-5.29-6.76-9.85.03-1.64.17-3.33,1.1-4.7,2.96-4.34,5.94-8.67,9.09-12.88,1.65-2.2,4.09-3.26,6.91-3.15,3.57.13,6.46-1.05,9.21-3.41,5.91-5.07,13.09-4.12,17.56,2.23,2.49,3.53,4.95,6.77,9.33,8.3ZM950.96,711.43c-1.66-.04-3.37-.51-4-2.22-.58-1.56.52-2.8,1.52-3.93.25-.28.52-.54.79-.8q3.63-3.52,6.85.47c1.56,1.93,3.08,3.89,5.14,6.48-3.91.01-7.11.06-10.29-.01ZM972.3,708.33c-1.39,3.43-2.53,3.82-5.66,2.04-.54-.31-1.06-.67-1.54-1.06-1.28-.99-2.53-2.01-4.09-3.25,6.56-4.57,7.57-9.48,3.5-15.92-1.88-2.97-4.12-5.66-6.51-8.22-1.89-2-3.16-1.61-3.85,1.01-.48,1.83-.06,4.6-2.74,4.61-2.56.01-3.52-2.52-4.36-4.61-.93-2.32-1.24-4.79.73-6.65,2.54-2.38,5.66-3.21,9.01-1.84,9.02,3.66,13.6,10.99,16.05,19.92,1.29,4.65,1.34,9.38-.53,13.97Z"/>
  <path d="M915.32,672.34c-3.72.28-7.41.96-11.17.62-4.32-.39-7.71,1.12-10.16,4.69-.07-.07-.12-.15-.2-.2-1.38.26.15-.72-.37-.79-2.58-2.65-4.05-2.62-6.7.15-.01.03,0,.08-.01.11-4.38,1.34-7.64,4.54-11.38,6.92.11-1.12-.1-2.26-.1-3.39,0-.88-1.92-.9-1.12-2.29,2.29-3.98-.52-2.74-2.31-2.54-.63-1.7-1.51-3.25-2.9-4.41.75-.2,1.59-.48,1.69-1.1.54-3.39,3.61-4.21,5.7-6.01.12,5.16,3.78,4.45,7.23,4.57,4.16.13,8.08-1.11,12.14-1.52,1.1-.11,2.22-.17,3.31-.17,4.85,0,9.58,1.01,14.27,2.31.54,1.14,1.2,2.18,2.09,3.06Z"/>
  <path d="M893.79,677.44c-1.38.26.15-.71-.37-.79-2.58-2.65-4.04-2.62-6.7.15v.11c.11-.03.22-.08.35-.11,2.18-1.02,4.48-2.81,6.02.81.02-.01.03-.02.06-.03,0,.01-.01.03-.01.04.28.01.56.03.84.04.01-.01.02-.02.03-.04-.08-.05-.14-.12-.21-.18Z"/>
  <path d="M915.32,672.34c.11-.01.24-.02.35-.03-.26-1.46-.64-2.82-2.45-3.04.55,1.14,1.21,2.18,2.1,3.07Z"/>
  <path d="M876.28,664.09c-2.09,1.81-5.16,2.63-5.7,6.01-.1.63-.93.9-1.69,1.1-.2-.17-.42-.34-.65-.49.7-.47,2.02-.99,1.99-1.38-.43-4.66,3.3-4.35,6.05-5.23Z"/>
  <path d="M875.32,683.84c-.07.03-.13.08-.2.12.01-2.65-4.77-4.86-.58-7.65-.92-1.47-1.79,1.1-2.58-.27-.05-.15-.1-.28-.16-.43,1.79-.21,4.6-1.44,2.31,2.54-.81,1.39,1.12,1.43,1.12,2.29-.02,1.12.2,2.26.09,3.39Z"/>
  <path d="M606.67,758.85c-1.62.08-3.23.2-4.79.75-2.59.9-3.64,3.08-3.17,5.25.54,2.46,3.12,2.7,5.28,2.27,2.79-.56,4.58-2.36,5.28-5.21.56-2.27.92-4.29-2.59-3.07ZM606.67,758.85c-1.62.08-3.23.2-4.79.75-2.59.9-3.64,3.08-3.17,5.25.54,2.46,3.12,2.7,5.28,2.27,2.79-.56,4.58-2.36,5.28-5.21.56-2.27.92-4.29-2.59-3.07ZM606.67,758.85c-1.62.08-3.23.2-4.79.75-2.59.9-3.64,3.08-3.17,5.25.54,2.46,3.12,2.7,5.28,2.27,2.79-.56,4.58-2.36,5.28-5.21.56-2.27.92-4.29-2.59-3.07ZM606.67,758.85c-1.62.08-3.23.2-4.79.75-2.59.9-3.64,3.08-3.17,5.25.54,2.46,3.12,2.7,5.28,2.27,2.79-.56,4.58-2.36,5.28-5.21.56-2.27.92-4.29-2.59-3.07ZM606.67,758.85c-1.62.08-3.23.2-4.79.75-2.59.9-3.64,3.08-3.17,5.25.54,2.46,3.12,2.7,5.28,2.27,2.79-.56,4.58-2.36,5.28-5.21.56-2.27.92-4.29-2.59-3.07ZM606.67,758.85c-1.62.08-3.23.2-4.79.75-2.59.9-3.64,3.08-3.17,5.25.54,2.46,3.12,2.7,5.28,2.27,2.79-.56,4.58-2.36,5.28-5.21.56-2.27.92-4.29-2.59-3.07ZM606.67,758.85c-1.62.08-3.23.2-4.79.75-2.59.9-3.64,3.08-3.17,5.25.54,2.46,3.12,2.7,5.28,2.27,2.79-.56,4.58-2.36,5.28-5.21.56-2.27.92-4.29-2.59-3.07ZM606.67,758.85c-1.62.08-3.23.2-4.79.75-2.59.9-3.64,3.08-3.17,5.25.54,2.46,3.12,2.7,5.28,2.27,2.79-.56,4.58-2.36,5.28-5.21.56-2.27.92-4.29-2.59-3.07ZM606.67,758.85c-1.62.08-3.23.2-4.79.75-2.59.9-3.64,3.08-3.17,5.25.54,2.46,3.12,2.7,5.28,2.27,2.79-.56,4.58-2.36,5.28-5.21.56-2.27.92-4.29-2.59-3.07ZM606.67,758.85c-1.62.08-3.23.2-4.79.75-2.59.9-3.64,3.08-3.17,5.25.54,2.46,3.12,2.7,5.28,2.27,2.79-.56,4.58-2.36,5.28-5.21.56-2.27.92-4.29-2.59-3.07ZM606.67,758.85c-1.62.08-3.23.2-4.79.75-2.59.9-3.64,3.08-3.17,5.25.54,2.46,3.12,2.7,5.28,2.27,2.79-.56,4.58-2.36,5.28-5.21.56-2.27.92-4.29-2.59-3.07ZM606.67,758.85c-1.62.08-3.23.2-4.79.75-2.59.9-3.64,3.08-3.17,5.25.54,2.46,3.12,2.7,5.28,2.27,2.79-.56,4.58-2.36,5.28-5.21.56-2.27.92-4.29-2.59-3.07ZM606.67,758.85c-1.62.08-3.23.2-4.79.75-2.59.9-3.64,3.08-3.17,5.25.54,2.46,3.12,2.7,5.28,2.27,2.79-.56,4.58-2.36,5.28-5.21.56-2.27.92-4.29-2.59-3.07ZM606.67,758.85c-1.62.08-3.23.2-4.79.75-2.59.9-3.64,3.08-3.17,5.25.54,2.46,3.12,2.7,5.28,2.27,2.79-.56,4.58-2.36,5.28-5.21.56-2.27.92-4.29-2.59-3.07ZM606.67,758.85c-1.62.08-3.23.2-4.79.75-2.59.9-3.64,3.08-3.17,5.25.54,2.46,3.12,2.7,5.28,2.27,2.79-.56,4.58-2.36,5.28-5.21.56-2.27.92-4.29-2.59-3.07ZM606.67,758.85c-1.62.08-3.23.2-4.79.75-2.59.9-3.64,3.08-3.17,5.25.54,2.46,3.12,2.7,5.28,2.27,2.79-.56,4.58-2.36,5.28-5.21.56-2.27.92-4.29-2.59-3.07ZM606.67,758.85c-1.62.08-3.23.2-4.79.75-2.59.9-3.64,3.08-3.17,5.25.54,2.46,3.12,2.7,5.28,2.27,2.79-.56,4.58-2.36,5.28-5.21.56-2.27.92-4.29-2.59-3.07ZM606.67,758.85c-1.62.08-3.23.2-4.79.75-2.59.9-3.64,3.08-3.17,5.25.54,2.46,3.12,2.7,5.28,2.27,2.79-.56,4.58-2.36,5.28-5.21.56-2.27.92-4.29-2.59-3.07ZM606.67,758.85c-1.62.08-3.23.2-4.79.75-2.59.9-3.64,3.08-3.17,5.25.54,2.46,3.12,2.7,5.28,2.27,2.79-.56,4.58-2.36,5.28-5.21.56-2.27.92-4.29-2.59-3.07ZM606.67,758.85c-1.62.08-3.23.2-4.79.75-2.59.9-3.64,3.08-3.17,5.25.54,2.46,3.12,2.7,5.28,2.27,2.79-.56,4.58-2.36,5.28-5.21.56-2.27.92-4.29-2.59-3.07ZM606.67,758.85c-1.62.08-3.23.2-4.79.75-2.59.9-3.64,3.08-3.17,5.25.54,2.46,3.12,2.7,5.28,2.27,2.79-.56,4.58-2.36,5.28-5.21.56-2.27.92-4.29-2.59-3.07ZM606.67,758.85c-1.62.08-3.23.2-4.79.75-2.59.9-3.64,3.08-3.17,5.25.54,2.46,3.12,2.7,5.28,2.27,2.79-.56,4.58-2.36,5.28-5.21.56-2.27.92-4.29-2.59-3.07ZM606.67,758.85c-1.62.08-3.23.2-4.79.75-2.59.9-3.64,3.08-3.17,5.25.54,2.46,3.12,2.7,5.28,2.27,2.79-.56,4.58-2.36,5.28-5.21.56-2.27.92-4.29-2.59-3.07ZM606.67,758.85c-1.62.08-3.23.2-4.79.75-2.59.9-3.64,3.08-3.17,5.25.54,2.46,3.12,2.7,5.28,2.27,2.79-.56,4.58-2.36,5.28-5.21.56-2.27.92-4.29-2.59-3.07ZM606.67,758.85c-1.62.08-3.23.2-4.79.75-2.59.9-3.64,3.08-3.17,5.25.54,2.46,3.12,2.7,5.28,2.27,2.79-.56,4.58-2.36,5.28-5.21.56-2.27.92-4.29-2.59-3.07ZM606.67,758.85c-1.62.08-3.23.2-4.79.75-2.59.9-3.64,3.08-3.17,5.25.54,2.46,3.12,2.7,5.28,2.27,2.79-.56,4.58-2.36,5.28-5.21.56-2.27.92-4.29-2.59-3.07ZM606.67,758.85c-1.62.08-3.23.2-4.79.75-2.59.9-3.64,3.08-3.17,5.25.54,2.46,3.12,2.7,5.28,2.27,2.79-.56,4.58-2.36,5.28-5.21.56-2.27.92-4.29-2.59-3.07ZM606.67,758.85c-1.62.08-3.23.2-4.79.75-2.59.9-3.64,3.08-3.17,5.25.54,2.46,3.12,2.7,5.28,2.27,2.79-.56,4.58-2.36,5.28-5.21.56-2.27.92-4.29-2.59-3.07ZM606.67,758.85c-1.62.08-3.23.2-4.79.75-2.59.9-3.64,3.08-3.17,5.25.54,2.46,3.12,2.7,5.28,2.27,2.79-.56,4.58-2.36,5.28-5.21.56-2.27.92-4.29-2.59-3.07ZM606.67,758.85c-1.62.08-3.23.2-4.79.75-2.59.9-3.64,3.08-3.17,5.25.54,2.46,3.12,2.7,5.28,2.27,2.79-.56,4.58-2.36,5.28-5.21.56-2.27.92-4.29-2.59-3.07ZM606.67,758.85c-1.62.08-3.23.2-4.79.75-2.59.9-3.64,3.08-3.17,5.25.54,2.46,3.12,2.7,5.28,2.27,2.79-.56,4.58-2.36,5.28-5.21.56-2.27.92-4.29-2.59-3.07ZM606.67,758.85c-1.62.08-3.23.2-4.79.75-2.59.9-3.64,3.08-3.17,5.25.54,2.46,3.12,2.7,5.28,2.27,2.79-.56,4.58-2.36,5.28-5.21.56-2.27.92-4.29-2.59-3.07ZM606.67,758.85c-1.62.08-3.23.2-4.79.75-2.59.9-3.64,3.08-3.17,5.25.54,2.46,3.12,2.7,5.28,2.27,2.79-.56,4.58-2.36,5.28-5.21.56-2.27.92-4.29-2.59-3.07ZM606.67,758.85c-1.62.08-3.23.2-4.79.75-2.59.9-3.64,3.08-3.17,5.25.54,2.46,3.12,2.7,5.28,2.27,2.79-.56,4.58-2.36,5.28-5.21.56-2.27.92-4.29-2.59-3.07ZM606.67,758.85c-1.62.08-3.23.2-4.79.75-2.59.9-3.64,3.08-3.17,5.25.54,2.46,3.12,2.7,5.28,2.27,2.79-.56,4.58-2.36,5.28-5.21.56-2.27.92-4.29-2.59-3.07ZM606.67,758.85c-1.62.08-3.23.2-4.79.75-2.59.9-3.64,3.08-3.17,5.25.54,2.46,3.12,2.7,5.28,2.27,2.79-.56,4.58-2.36,5.28-5.21.56-2.27.92-4.29-2.59-3.07ZM606.67,758.85c-1.62.08-3.23.2-4.79.75-2.59.9-3.64,3.08-3.17,5.25.54,2.46,3.12,2.7,5.28,2.27,2.79-.56,4.58-2.36,5.28-5.21.56-2.27.92-4.29-2.59-3.07ZM606.67,758.85c-1.62.08-3.23.2-4.79.75-2.59.9-3.64,3.08-3.17,5.25.54,2.46,3.12,2.7,5.28,2.27,2.79-.56,4.58-2.36,5.28-5.21.56-2.27.92-4.29-2.59-3.07ZM606.67,758.85c-1.62.08-3.23.2-4.79.75-2.59.9-3.64,3.08-3.17,5.25.54,2.46,3.12,2.7,5.28,2.27,2.79-.56,4.58-2.36,5.28-5.21.56-2.27.92-4.29-2.59-3.07ZM606.67,758.85c-1.62.08-3.23.2-4.79.75-2.59.9-3.64,3.08-3.17,5.25.54,2.46,3.12,2.7,5.28,2.27,2.79-.56,4.58-2.36,5.28-5.21.56-2.27.92-4.29-2.59-3.07ZM606.67,758.85c-1.62.08-3.23.2-4.79.75-2.59.9-3.64,3.08-3.17,5.25.54,2.46,3.12,2.7,5.28,2.27,2.79-.56,4.58-2.36,5.28-5.21.56-2.27.92-4.29-2.59-3.07ZM606.67,758.85c-1.62.08-3.23.2-4.79.75-2.59.9-3.64,3.08-3.17,5.25.54,2.46,3.12,2.7,5.28,2.27,2.79-.56,4.58-2.36,5.28-5.21.56-2.27.92-4.29-2.59-3.07ZM606.67,758.85c-1.62.08-3.23.2-4.79.75-2.59.9-3.64,3.08-3.17,5.25.54,2.46,3.12,2.7,5.28,2.27,2.79-.56,4.58-2.36,5.28-5.21.56-2.27.92-4.29-2.59-3.07ZM606.67,758.85c-1.62.08-3.23.2-4.79.75-2.59.9-3.64,3.08-3.17,5.25.54,2.46,3.12,2.7,5.28,2.27,2.79-.56,4.58-2.36,5.28-5.21.56-2.27.92-4.29-2.59-3.07ZM606.67,758.85c-1.62.08-3.23.2-4.79.75-2.59.9-3.64,3.08-3.17,5.25.54,2.46,3.12,2.7,5.28,2.27,2.79-.56,4.58-2.36,5.28-5.21.56-2.27.92-4.29-2.59-3.07ZM606.67,758.85c-1.62.08-3.23.2-4.79.75-2.59.9-3.64,3.08-3.17,5.25.54,2.46,3.12,2.7,5.28,2.27,2.79-.56,4.58-2.36,5.28-5.21.56-2.27.92-4.29-2.59-3.07ZM606.67,758.85c-1.62.08-3.23.2-4.79.75-2.59.9-3.64,3.08-3.17,5.25.54,2.46,3.12,2.7,5.28,2.27,2.79-.56,4.58-2.36,5.28-5.21.56-2.27.92-4.29-2.59-3.07ZM606.67,758.85c-1.62.08-3.23.2-4.79.75-2.59.9-3.64,3.08-3.17,5.25.54,2.46,3.12,2.7,5.28,2.27,2.79-.56,4.58-2.36,5.28-5.21.56-2.27.92-4.29-2.59-3.07ZM606.67,758.85c-1.62.08-3.23.2-4.79.75-2.59.9-3.64,3.08-3.17,5.25.54,2.46,3.12,2.7,5.28,2.27,2.79-.56,4.58-2.36,5.28-5.21.56-2.27.92-4.29-2.59-3.07ZM606.67,758.85c-1.62.08-3.23.2-4.79.75-2.59.9-3.64,3.08-3.17,5.25.54,2.46,3.12,2.7,5.28,2.27,2.79-.56,4.58-2.36,5.28-5.21.56-2.27.92-4.29-2.59-3.07ZM606.67,758.85c-1.62.08-3.23.2-4.79.75-2.59.9-3.64,3.08-3.17,5.25.54,2.46,3.12,2.7,5.28,2.27,2.79-.56,4.58-2.36,5.28-5.21.56-2.27.92-4.29-2.59-3.07ZM606.67,758.85c-1.62.08-3.23.2-4.79.75-2.59.9-3.64,3.08-3.17,5.25.54,2.46,3.12,2.7,5.28,2.27,2.79-.56,4.58-2.36,5.28-5.21.56-2.27.92-4.29-2.59-3.07ZM606.67,758.85c-1.62.08-3.23.2-4.79.75-2.59.9-3.64,3.08-3.17,5.25.54,2.46,3.12,2.7,5.28,2.27,2.79-.56,4.58-2.36,5.28-5.21.56-2.27.92-4.29-2.59-3.07ZM606.67,758.85c-1.62.08-3.23.2-4.79.75-2.59.9-3.64,3.08-3.17,5.25.54,2.46,3.12,2.7,5.28,2.27,2.79-.56,4.58-2.36,5.28-5.21.56-2.27.92-4.29-2.59-3.07ZM626.92,765.07c-3.7-2.61-3.09-5.92-1.77-9.36.51-1.3.62-2.08-1.08-2.23-5.32-.47-7.17-3.76-6.54-8.85-6.67,3.16-7.36,3.12-11.87-.6-1.51,3.95-4.32,4.41-7.86,2.95-.8-.33-1.66-.56-2.52-.67-.69-.1-1.91-.11-1.52.92,1.43,3.76-1.6,2.89-3.34,3.45-1.21.39-3.49-.49-3.12,2.06.4,2.7-1.15,4.15-2.98,5.59-4.3,3.39-3.98,11.09.16,14.62,3.84,3.3,9.33,2.31,13.08,5.57.35.3,1.3.22,1.83-.02,3.51-1.7,6.78-.49,10.15.58,4.15,1.32,6.41-.03,7.54-4.23q1.59-5.96,7.69-5.78c1.11.03,2.45.06,3.04-.97.62-1.08-.1-2.47-.9-3.04ZM613.44,765.58c-2.73,3.35-5.89,6.16-9.92,6.43-4.47-.01-7.38-1.54-9.12-5.07-1.7-3.43-.01-6.01,2.13-8.44,5.66-6.48,11.25-7.12,16.34-1.91,2.92,2.99,3.19,5.77.57,8.99ZM606.67,758.85c-1.62.08-3.23.2-4.79.75-2.59.9-3.64,3.08-3.17,5.25.54,2.46,3.12,2.7,5.28,2.27,2.79-.56,4.58-2.36,5.28-5.21.56-2.27.92-4.29-2.59-3.07ZM606.67,758.85c-1.62.08-3.23.2-4.79.75-2.59.9-3.64,3.08-3.17,5.25.54,2.46,3.12,2.7,5.28,2.27,2.79-.56,4.58-2.36,5.28-5.21.56-2.27.92-4.29-2.59-3.07ZM606.67,758.85c-1.62.08-3.23.2-4.79.75-2.59.9-3.64,3.08-3.17,5.25.54,2.46,3.12,2.7,5.28,2.27,2.79-.56,4.58-2.36,5.28-5.21.56-2.27.92-4.29-2.59-3.07ZM606.67,758.85c-1.62.08-3.23.2-4.79.75-2.59.9-3.64,3.08-3.17,5.25.54,2.46,3.12,2.7,5.28,2.27,2.79-.56,4.58-2.36,5.28-5.21.56-2.27.92-4.29-2.59-3.07ZM606.67,758.85c-1.62.08-3.23.2-4.79.75-2.59.9-3.64,3.08-3.17,5.25.54,2.46,3.12,2.7,5.28,2.27,2.79-.56,4.58-2.36,5.28-5.21.56-2.27.92-4.29-2.59-3.07ZM606.67,758.85c-1.62.08-3.23.2-4.79.75-2.59.9-3.64,3.08-3.17,5.25.54,2.46,3.12,2.7,5.28,2.27,2.79-.56,4.58-2.36,5.28-5.21.56-2.27.92-4.29-2.59-3.07ZM606.67,758.85c-1.62.08-3.23.2-4.79.75-2.59.9-3.64,3.08-3.17,5.25.54,2.46,3.12,2.7,5.28,2.27,2.79-.56,4.58-2.36,5.28-5.21.56-2.27.92-4.29-2.59-3.07ZM606.67,758.85c-1.62.08-3.23.2-4.79.75-2.59.9-3.64,3.08-3.17,5.25.54,2.46,3.12,2.7,5.28,2.27,2.79-.56,4.58-2.36,5.28-5.21.56-2.27.92-4.29-2.59-3.07ZM606.67,758.85c-1.62.08-3.23.2-4.79.75-2.59.9-3.64,3.08-3.17,5.25.54,2.46,3.12,2.7,5.28,2.27,2.79-.56,4.58-2.36,5.28-5.21.56-2.27.92-4.29-2.59-3.07ZM606.67,758.85c-1.62.08-3.23.2-4.79.75-2.59.9-3.64,3.08-3.17,5.25.54,2.46,3.12,2.7,5.28,2.27,2.79-.56,4.58-2.36,5.28-5.21.56-2.27.92-4.29-2.59-3.07ZM606.67,758.85c-1.62.08-3.23.2-4.79.75-2.59.9-3.64,3.08-3.17,5.25.54,2.46,3.12,2.7,5.28,2.27,2.79-.56,4.58-2.36,5.28-5.21.56-2.27.92-4.29-2.59-3.07ZM606.67,758.85c-1.62.08-3.23.2-4.79.75-2.59.9-3.64,3.08-3.17,5.25.54,2.46,3.12,2.7,5.28,2.27,2.79-.56,4.58-2.36,5.28-5.21.56-2.27.92-4.29-2.59-3.07ZM606.67,758.85c-1.62.08-3.23.2-4.79.75-2.59.9-3.64,3.08-3.17,5.25.54,2.46,3.12,2.7,5.28,2.27,2.79-.56,4.58-2.36,5.28-5.21.56-2.27.92-4.29-2.59-3.07ZM606.67,758.85c-1.62.08-3.23.2-4.79.75-2.59.9-3.64,3.08-3.17,5.25.54,2.46,3.12,2.7,5.28,2.27,2.79-.56,4.58-2.36,5.28-5.21.56-2.27.92-4.29-2.59-3.07ZM606.67,758.85c-1.62.08-3.23.2-4.79.75-2.59.9-3.64,3.08-3.17,5.25.54,2.46,3.12,2.7,5.28,2.27,2.79-.56,4.58-2.36,5.28-5.21.56-2.27.92-4.29-2.59-3.07ZM606.67,758.85c-1.62.08-3.23.2-4.79.75-2.59.9-3.64,3.08-3.17,5.25.54,2.46,3.12,2.7,5.28,2.27,2.79-.56,4.58-2.36,5.28-5.21.56-2.27.92-4.29-2.59-3.07ZM606.67,758.85c-1.62.08-3.23.2-4.79.75-2.59.9-3.64,3.08-3.17,5.25.54,2.46,3.12,2.7,5.28,2.27,2.79-.56,4.58-2.36,5.28-5.21.56-2.27.92-4.29-2.59-3.07ZM606.67,758.85c-1.62.08-3.23.2-4.79.75-2.59.9-3.64,3.08-3.17,5.25.54,2.46,3.12,2.7,5.28,2.27,2.79-.56,4.58-2.36,5.28-5.21.56-2.27.92-4.29-2.59-3.07ZM606.67,758.85c-1.62.08-3.23.2-4.79.75-2.59.9-3.64,3.08-3.17,5.25.54,2.46,3.12,2.7,5.28,2.27,2.79-.56,4.58-2.36,5.28-5.21.56-2.27.92-4.29-2.59-3.07ZM606.67,758.85c-1.62.08-3.23.2-4.79.75-2.59.9-3.64,3.08-3.17,5.25.54,2.46,3.12,2.7,5.28,2.27,2.79-.56,4.58-2.36,5.28-5.21.56-2.27.92-4.29-2.59-3.07ZM606.67,758.85c-1.62.08-3.23.2-4.79.75-2.59.9-3.64,3.08-3.17,5.25.54,2.46,3.12,2.7,5.28,2.27,2.79-.56,4.58-2.36,5.28-5.21.56-2.27.92-4.29-2.59-3.07ZM606.67,758.85c-1.62.08-3.23.2-4.79.75-2.59.9-3.64,3.08-3.17,5.25.54,2.46,3.12,2.7,5.28,2.27,2.79-.56,4.58-2.36,5.28-5.21.56-2.27.92-4.29-2.59-3.07ZM606.67,758.85c-1.62.08-3.23.2-4.79.75-2.59.9-3.64,3.08-3.17,5.25.54,2.46,3.12,2.7,5.28,2.27,2.79-.56,4.58-2.36,5.28-5.21.56-2.27.92-4.29-2.59-3.07ZM606.67,758.85c-1.62.08-3.23.2-4.79.75-2.59.9-3.64,3.08-3.17,5.25.54,2.46,3.12,2.7,5.28,2.27,2.79-.56,4.58-2.36,5.28-5.21.56-2.27.92-4.29-2.59-3.07ZM606.67,758.85c-1.62.08-3.23.2-4.79.75-2.59.9-3.64,3.08-3.17,5.25.54,2.46,3.12,2.7,5.28,2.27,2.79-.56,4.58-2.36,5.28-5.21.56-2.27.92-4.29-2.59-3.07ZM606.67,758.85c-1.62.08-3.23.2-4.79.75-2.59.9-3.64,3.08-3.17,5.25.54,2.46,3.12,2.7,5.28,2.27,2.79-.56,4.58-2.36,5.28-5.21.56-2.27.92-4.29-2.59-3.07ZM606.67,758.85c-1.62.08-3.23.2-4.79.75-2.59.9-3.64,3.08-3.17,5.25.54,2.46,3.12,2.7,5.28,2.27,2.79-.56,4.58-2.36,5.28-5.21.56-2.27.92-4.29-2.59-3.07ZM606.67,758.85c-1.62.08-3.23.2-4.79.75-2.59.9-3.64,3.08-3.17,5.25.54,2.46,3.12,2.7,5.28,2.27,2.79-.56,4.58-2.36,5.28-5.21.56-2.27.92-4.29-2.59-3.07ZM606.67,758.85c-1.62.08-3.23.2-4.79.75-2.59.9-3.64,3.08-3.17,5.25.54,2.46,3.12,2.7,5.28,2.27,2.79-.56,4.58-2.36,5.28-5.21.56-2.27.92-4.29-2.59-3.07ZM606.67,758.85c-1.62.08-3.23.2-4.79.75-2.59.9-3.64,3.08-3.17,5.25.54,2.46,3.12,2.7,5.28,2.27,2.79-.56,4.58-2.36,5.28-5.21.56-2.27.92-4.29-2.59-3.07ZM606.67,758.85c-1.62.08-3.23.2-4.79.75-2.59.9-3.64,3.08-3.17,5.25.54,2.46,3.12,2.7,5.28,2.27,2.79-.56,4.58-2.36,5.28-5.21.56-2.27.92-4.29-2.59-3.07ZM606.67,758.85c-1.62.08-3.23.2-4.79.75-2.59.9-3.64,3.08-3.17,5.25.54,2.46,3.12,2.7,5.28,2.27,2.79-.56,4.58-2.36,5.28-5.21.56-2.27.92-4.29-2.59-3.07ZM606.67,758.85c-1.62.08-3.23.2-4.79.75-2.59.9-3.64,3.08-3.17,5.25.54,2.46,3.12,2.7,5.28,2.27,2.79-.56,4.58-2.36,5.28-5.21.56-2.27.92-4.29-2.59-3.07ZM606.67,758.85c-1.62.08-3.23.2-4.79.75-2.59.9-3.64,3.08-3.17,5.25.54,2.46,3.12,2.7,5.28,2.27,2.79-.56,4.58-2.36,5.28-5.21.56-2.27.92-4.29-2.59-3.07ZM606.67,758.85c-1.62.08-3.23.2-4.79.75-2.59.9-3.64,3.08-3.17,5.25.54,2.46,3.12,2.7,5.28,2.27,2.79-.56,4.58-2.36,5.28-5.21.56-2.27.92-4.29-2.59-3.07ZM606.67,758.85c-1.62.08-3.23.2-4.79.75-2.59.9-3.64,3.08-3.17,5.25.54,2.46,3.12,2.7,5.28,2.27,2.79-.56,4.58-2.36,5.28-5.21.56-2.27.92-4.29-2.59-3.07ZM606.67,758.85c-1.62.08-3.23.2-4.79.75-2.59.9-3.64,3.08-3.17,5.25.54,2.46,3.12,2.7,5.28,2.27,2.79-.56,4.58-2.36,5.28-5.21.56-2.27.92-4.29-2.59-3.07ZM606.67,758.85c-1.62.08-3.23.2-4.79.75-2.59.9-3.64,3.08-3.17,5.25.54,2.46,3.12,2.7,5.28,2.27,2.79-.56,4.58-2.36,5.28-5.21.56-2.27.92-4.29-2.59-3.07ZM606.67,758.85c-1.62.08-3.23.2-4.79.75-2.59.9-3.64,3.08-3.17,5.25.54,2.46,3.12,2.7,5.28,2.27,2.79-.56,4.58-2.36,5.28-5.21.56-2.27.92-4.29-2.59-3.07ZM606.67,758.85c-1.62.08-3.23.2-4.79.75-2.59.9-3.64,3.08-3.17,5.25.54,2.46,3.12,2.7,5.28,2.27,2.79-.56,4.58-2.36,5.28-5.21.56-2.27.92-4.29-2.59-3.07ZM606.67,758.85c-1.62.08-3.23.2-4.79.75-2.59.9-3.64,3.08-3.17,5.25.54,2.46,3.12,2.7,5.28,2.27,2.79-.56,4.58-2.36,5.28-5.21.56-2.27.92-4.29-2.59-3.07ZM606.67,758.85c-1.62.08-3.23.2-4.79.75-2.59.9-3.64,3.08-3.17,5.25.54,2.46,3.12,2.7,5.28,2.27,2.79-.56,4.58-2.36,5.28-5.21.56-2.27.92-4.29-2.59-3.07ZM606.67,758.85c-1.62.08-3.23.2-4.79.75-2.59.9-3.64,3.08-3.17,5.25.54,2.46,3.12,2.7,5.28,2.27,2.79-.56,4.58-2.36,5.28-5.21.56-2.27.92-4.29-2.59-3.07ZM606.67,758.85c-1.62.08-3.23.2-4.79.75-2.59.9-3.64,3.08-3.17,5.25.54,2.46,3.12,2.7,5.28,2.27,2.79-.56,4.58-2.36,5.28-5.21.56-2.27.92-4.29-2.59-3.07ZM606.67,758.85c-1.62.08-3.23.2-4.79.75-2.59.9-3.64,3.08-3.17,5.25.54,2.46,3.12,2.7,5.28,2.27,2.79-.56,4.58-2.36,5.28-5.21.56-2.27.92-4.29-2.59-3.07ZM606.67,758.85c-1.62.08-3.23.2-4.79.75-2.59.9-3.64,3.08-3.17,5.25.54,2.46,3.12,2.7,5.28,2.27,2.79-.56,4.58-2.36,5.28-5.21.56-2.27.92-4.29-2.59-3.07ZM606.67,758.85c-1.62.08-3.23.2-4.79.75-2.59.9-3.64,3.08-3.17,5.25.54,2.46,3.12,2.7,5.28,2.27,2.79-.56,4.58-2.36,5.28-5.21.56-2.27.92-4.29-2.59-3.07ZM606.67,758.85c-1.62.08-3.23.2-4.79.75-2.59.9-3.64,3.08-3.17,5.25.54,2.46,3.12,2.7,5.28,2.27,2.79-.56,4.58-2.36,5.28-5.21.56-2.27.92-4.29-2.59-3.07ZM606.67,758.85c-1.62.08-3.23.2-4.79.75-2.59.9-3.64,3.08-3.17,5.25.54,2.46,3.12,2.7,5.28,2.27,2.79-.56,4.58-2.36,5.28-5.21.56-2.27.92-4.29-2.59-3.07ZM606.67,758.85c-1.62.08-3.23.2-4.79.75-2.59.9-3.64,3.08-3.17,5.25.54,2.46,3.12,2.7,5.28,2.27,2.79-.56,4.58-2.36,5.28-5.21.56-2.27.92-4.29-2.59-3.07ZM606.67,758.85c-1.62.08-3.23.2-4.79.75-2.59.9-3.64,3.08-3.17,5.25.54,2.46,3.12,2.7,5.28,2.27,2.79-.56,4.58-2.36,5.28-5.21.56-2.27.92-4.29-2.59-3.07ZM606.67,758.85c-1.62.08-3.23.2-4.79.75-2.59.9-3.64,3.08-3.17,5.25.54,2.46,3.12,2.7,5.28,2.27,2.79-.56,4.58-2.36,5.28-5.21.56-2.27.92-4.29-2.59-3.07ZM606.67,758.85c-1.62.08-3.23.2-4.79.75-2.59.9-3.64,3.08-3.17,5.25.54,2.46,3.12,2.7,5.28,2.27,2.79-.56,4.58-2.36,5.28-5.21.56-2.27.92-4.29-2.59-3.07Z"/>
  <path d="M935.68,685.56c-.24-.33-.46-.67-.66-1.02-.24.12-.56.09-.85-.03-4.3-1.86-9.56-1.48-12.91-5.56-.49-.6-1.28-1.03-2.01-.61-4.24,2.51-9.01.55-13.49,1.69-5.14,1.3-7.99,3.53-8.59,8.93-.33,2.9-.67,5.73-2.13,8.31-.58,1.05-.94,2.4.31,3,3.61,1.72,6.36,5.57,11.14,4.65,1.68-.33,3.16.65,4.61,1.37,1.84.91,3.79,1.63,5.8.94,4.52-1.56,8.68-3.91,12.85-6.24,1.66-.92,1.54-2.74,1.54-4.39,0-4.29,1.82-7.82,4.4-11.05ZM923.5,698.92c-2.65,1.96-7.01,1.79-9.43-.37-1.26-1.15-.65-1.99.54-2.59,1.45-.72,2.99-1.26,4.44-1.98,1.24-.61,2.74-1.35,2.41-2.95-.37-1.77-2.13-1.29-3.45-1.38-.51-.03-1-.06-2.01-.1-2.52-.3-5.24.01-6.96,3.04-.67,1.19-2.01,1.24-2.99.65-1.11-.66-1.47-1.79-1.03-3.25,1.28-4.27,4.18-6.69,8.7-7.01,6.64-.47,11.45,1.75,13.32,6.15,1.32,3.06-.25,7.37-3.52,9.79Z"/>
  <path d="M935.02,684.54c.2.36.42.7.65,1.02.11-.13.21-.27.33-.4-.01-.61-.12-1.16-.71-1.48.09.48-.05.74-.27.87Z"/>
  <path d="M923.5,679.78c-2.64-2.14-3.6-2.29-6.84-1.08-.46.17-1.17.49-1.41.3-3.15-2.52-6.19.01-9.25.2-6.06.39-9.51,3.96-9.89,10.05-.19,3.06-.66,5.95-2.59,8.47-.94,1.24-1.27,2.73.64,3.28,4.48,1.3,7.45,6.73,13.15,4.78.57-.2,1.56.2,2.11.63,4.59,3.57,8.86,1.91,13.17-.6,1.72-1,3.51-1.97,5.37-2.65,3.31-1.21,5.07-3.06,4.23-6.9-.4-1.84.27-3.79,1.43-5.32,1.19-1.57,1.71-3.37,2.22-5.2-.03-.04-.08-.08-.11-.12-.02-.02-.03-.06-.06-.08-2.58,3.23-4.4,6.75-4.4,11.05,0,1.64.12,3.45-1.54,4.39-4.16,2.33-8.32,4.68-12.85,6.24-2,.69-3.96-.02-5.8-.94-1.46-.72-2.94-1.7-4.61-1.37-4.77.92-7.51-2.91-11.14-4.65-1.26-.61-.9-1.96-.31-3,1.44-2.59,1.8-5.42,2.13-8.31.61-5.4,3.44-7.63,8.59-8.93,4.49-1.14,9.25.82,13.49-1.69.72-.43,1.53.01,2.01.61,3.35,4.07,8.61,3.7,12.91,5.56.28.12.62.16.85.02-.16-.29-.31-.58-.47-.88-.02-.1-.05-.19-.07-.29-3.19-1.11-6.7-1.12-9.75-2.73-.43-.22-.84-.52-1.23-.83Z"/>
  <path d="M934.55,683.66c.15.29.3.6.47.88.22-.12.36-.38.28-.87-.27-.11-.54-.21-.82-.31.02.1.06.2.07.3Z"/>
  <path d="M935.73,685.65s.08.08.11.12c.06-.2.11-.4.17-.61-.11.13-.22.27-.33.4.01.02.02.04.05.08Z"/>
  <path d="M626.51,788.06c.7-2.19,2.27-3.55,4.3-4.45,2.62-1.16,4.59-2.8,5.51-5.73,1.05-3.34,3.85-3.45,6.75-2.99-.8-.69-1.16-1.98-2.6-1.77-4.31.66-6.02-.93-5.57-5.28.11-1.11-.65-1.14-1.25-1.46h0c-.29,3.82-2.58,6.45-5.58,8.36-3.77,2.4-8.17,3.85-10.84,7.78-.4.6-1.2.89-2.02.69.21.64.98,1.3.02,1.92-4.8,3.08-4.81,3.1-2.18,8.91q.66,1.45,2.23.36h0c1.07-1.18,2.52-.9,3.86-1.01,3.53-.31,6.24-1.73,7.38-5.33Z"/>
  <path d="M627.17,789.14c.52-2.79,2.17-4.03,4.44-4.96,1.87-.75,4.27-1.45,4.6-3.46.67-4.16,3.48-5.19,6.86-5.83-2.9-.46-5.7-.35-6.75,2.99-.92,2.92-2.89,4.57-5.51,5.73-2.02.9-3.6,2.25-4.3,4.45-1.14,3.61-3.85,5.03-7.39,5.32-1.34.11-2.8-.17-3.86,1.01,1.87-.09,3.76-.09,5.61-.3,3.07-.36,5.69-1.79,6.29-4.95Z"/>
  <path d="M617.22,782.53c2.68-3.93,7.08-5.39,10.84-7.78,3-1.91,5.28-4.53,5.58-8.36-1.81,2.94-3.12,6.57-6.41,7.98-4.79,2.04-8.73,4.95-12.04,8.85.82.2,1.62-.09,2.02-.69Z"/>
  <path d="M835.05,825.98h0s-.02.05-.02.07c.02,0,.06-.01.08-.02-.01.01-.07-.05-.06-.05Z"/>
  <path d="M835.14,825.96s-.06.02-.09.03l.06.05s.02-.06.03-.08Z"/>
  <polygon points="835.1 826.04 835.05 825.98 835.05 825.98 835.1 826.04"/>
  <path d="M933.59,774.2c-.26,1.69-1.38.76-2.2.73.67.66,1.57.6,2.41.66.43.03,1.14.06.94-.64-.09-.34-.74-.51-1.15-.75Z"/>
  <path d="M933.59,774.2c-.25,1.7-1.38.76-2.2.73.67-.44,1.69.15,2.2-.73Z"/>
  <path d="M893.07,677.62c-.36.19-.71.33-.98.54-.47.36-1.7.8-.33,1.35.73.29,1.12-.71,1.36-1.87h-.05s-.01-.01-.01-.02Z"/>
  <path d="M893.07,677.62s0,.01.01.01h.05s.01-.03.01-.04c-.03.02-.05.02-.07.03Z"/>
  <path d="M657.96,648.14c-.58.96-.99,1.98-.16,2.94.33.37.89.07,1.18-.39h0c-1.96-.18-1.11-1.52-1.02-2.54Z"/>
  <path d="M657.96,648.14c-.09,1.02-.93,2.35,1.02,2.55-1.21-.49-.58-1.73-1.02-2.55Z"/>
  <path d="M948.74,729c-2.04-2.29-4.03-3.24-6.84-1.61-2.1,1.21-3.81.39-5.39-1.12-4.32-4.2-4.72-4.16-8.53.83-1.41,1.83-2.87,3.98-5.49,2.55-3.43-1.87-5.52-.97-7.11,2.36-.47.99-1.45,1.72-2.08,2.63-1.63,2.32-1.99,5.01-1.17,7.56,1.65,5.19,6.28,7.96,10.08,11.34.42.37,1.52.28,2.16.04,2.72-1.03,5.2-.2,7.63.85,3.64,1.6,7.26,1.62,10.95.2,2.1-.8,4.21-1.74,6.4-2.08,2.26-.35,2.67-1.47,2.8-3.44.3-4.68-.26-9.67,4.13-12.91-2.68-2.52-5.31-4.68-7.54-7.21ZM947.01,743.24c-6.56,8.18-14.45,9.12-21.9,1.11-1.71-1.83-1.62-3.88.36-5.6,2.94-2.54,5.96-5.02,9.46-6.75,4.89-2.42,12.94,2.6,13.08,8.08.11,1.2-.31,2.29-1,3.16Z"/>
  <path d="M626.92,765.07c-3.7-2.61-3.09-5.92-1.77-9.36.51-1.3.62-2.08-1.08-2.23-5.32-.47-7.17-3.76-6.54-8.85-6.67,3.16-7.36,3.12-11.87-.6-1.51,3.95-4.32,4.41-7.86,2.95-.8-.33-1.66-.56-2.52-.67-.69-.1-1.91-.11-1.52.92,1.43,3.76-1.6,2.89-3.34,3.45-1.21.39-3.49-.49-3.12,2.06.4,2.7-1.15,4.15-2.98,5.59-4.3,3.39-3.98,11.09.16,14.62,3.84,3.3,9.33,2.31,13.08,5.57.35.3,1.3.22,1.83-.02,3.51-1.7,6.78-.49,10.15.58,4.15,1.32,6.41-.03,7.54-4.23q1.59-5.96,7.69-5.78c1.11.03,2.45.06,3.04-.97.62-1.08-.1-2.47-.9-3.04ZM613.44,765.58c-2.73,3.35-5.89,6.16-9.92,6.43-4.47-.01-7.38-1.54-9.12-5.07-1.7-3.43-.01-6.01,2.13-8.44,5.66-6.48,11.25-7.12,16.34-1.91,2.92,2.99,3.19,5.77.57,8.99Z"/>
  <path d="M944.93,739.39c-.21,2.72-1.42,4.79-4.66,4.66-.74-.03-1.5,0-2.25,0-1.74-.01-3.57.12-5.01-1.06-.94-.79-3.06-.74-2.67-2.49.39-1.77,1.3-3.59,3.43-4.05,2.19-.47,4.39-1.07,6.65-.79,2.28.26,4.75.56,4.5,3.72Z"/>
  <path d="M609.26,761.92c-.7,2.85-2.5,4.66-5.28,5.21-2.15.44-4.74.19-5.28-2.27-.47-2.17.58-4.36,3.17-5.25,1.56-.55,3.17-.67,4.79-.75,3.51-1.21,3.15.8,2.59,3.07Z"/>
</svg>