<svg data-name="Capa 1" xmlns="http://www.w3.org/2000/svg" viewBox="0 0 2583.04 2060"><path d="M755.475 588.321c-3.926 3.925-6.341 11.304-5.367 16.397 2.13 11.145-14.549 21.493-22.242 13.799-3.283-3.283-4.615-2.003-4.615 4.436 0 6.207-4.394 10.784-13.991 14.572-7.696 3.037-15.22 6.219-16.721 7.071-1.501.852-5.415-1.138-8.699-4.421-22.05-22.051-49.189-15.963-61.056 13.697-5.06 12.645-9.604 17.718-15.87 17.718-4.829 0-9.982 3.391-11.452 7.534-1.469 4.144-5.625 10.97-9.234 15.17-4.862 5.656-5.307 8.891-1.719 12.479 3.588 3.588 3.426 7.746-.628 16.042-12.82 26.237-17.435 48.19-11.97 56.94 2.893 4.632 4.169 10.186 2.837 12.342-1.332 2.156 5.569 6.314 15.336 9.241 14.226 4.262 23.882 4.206 48.556-.285 64.811-11.795 71.391-11.305 95.374 7.108 15.76 12.101 23.082 21.411 27.338 34.764 11.074 34.74 4.113 34.295-39.156-2.504-21.948-18.666-43.282-33.939-47.408-33.939-9.853 0-9.468 2.037 2.184 11.558l9.686 7.915-10.763 4.341c-9.256 3.734-9.557 4.401-2.152 4.767 9.85.486 33.042 12.65 24.563 12.883-3.066.083-18.564-3.191-34.441-7.278-26.274-6.762-27.707-7.685-15.952-10.265 9.417-2.067 7.96-2.409-5.382-1.263-10.158.874-18.296-.305-18.296-2.65 0-4.741-18.124-4.923-34.441-.344-10.177 2.856-9.357 3.925 15.068 19.645 33.658 21.663 74.531 40.133 96.631 43.667 10.111 1.617 27.545 9.921 40.887 19.475 12.793 9.161 27.451 16.656 32.573 16.656 5.637 0 18.109-9.154 31.598-23.193 25.039-26.06 36.054-31.552 90.467-45.112 37.747-9.406 68.511-22.194 73.737-30.65 3.429-5.549-79.193-5.754-102.901-.255-9.261 2.147-22.337 7.971-29.059 12.941-24.641 18.217-11.364.227 15.761-21.357 15.39-12.247 27.983-23.977 27.983-26.066 0-5.845-11.934.078-14.705 7.299-1.357 3.537-4.691 5.015-7.455 3.307-3.11-1.922-3.839-1.211-1.929 1.879 1.759 2.847.514 4.971-2.913 4.971-3.291 0-19.78 14.228-36.643 31.618-21.291 21.958-31.379 29.743-33.015 25.479-4.95-12.898-2.016-31.608 6.253-39.877l8.61-8.61-9.686-.273-9.686-.273 10.084-4.041c5.546-2.222 11.632-3.083 13.525-1.913 1.893 1.17 14.633-4.612 28.311-12.848 30.77-18.529 44.839-21.279 91.813-17.948 36.598 2.596 36.912 2.534 24.164-4.748l-12.915-7.379 11.391-1.362c17.039-2.037 26.617-14.769 23.113-30.722-1.595-7.263-5.168-13.328-7.939-13.478-2.772-.15-.638-2.041 4.742-4.201 5.38-2.161 10.787-6.547 12.015-9.748 3.102-8.083-5.381-28.828-11.788-28.828-4.101 0-4.125 1.148-.107 5.166 6.513 6.513 6.778 24.969.359 24.969-2.658 0-3.819-3.779-2.597-8.452 2.564-9.803-7.034-19.606-14.611-14.923-3.603 2.227-4.47.513-2.858-5.652 1.869-7.148-.173-9.346-10.622-11.436-16.988-3.398-20.471-3.266-20.471.774 0 1.848 5.812 5.555 12.915 8.236 23.56 8.893 12.627 35.758-14.552 35.758-20.828 0-30.039-8.303-24.722-22.287 2.356-6.197 3.116-12.436 1.689-13.863-1.427-1.428 1.488-2.596 6.478-2.596 4.991 0 10.271-1.937 11.735-4.305 1.463-2.367-.73-4.305-4.874-4.305-7.097 0-7.088-.326.155-5.622 10.527-7.698 7.355-23.841-6.746-34.328-16.21-12.057-32.467-7.196-40.538 12.121-7.344 17.578-10.034 19.135-7.169 4.151 1.299-6.796.091-10.762-3.277-10.762-4.012 0-3.87-1.777.574-7.172 5.329-6.467 4.74-6.88-5.999-4.206-10.186 2.537-12.53 1.331-16.209-8.346-3.534-9.297-6.207-10.834-14.999-8.628-8.78 2.204-10.698 1.108-10.698-6.113 0-15.652-32.461-22.865-45.267-10.059m28.047 10.083a4.317 4.317 0 0 1-4.305 4.305 4.317 4.317 0 0 1-4.305-4.305 4.317 4.317 0 0 1 4.305-4.305 4.317 4.317 0 0 1 4.305 4.305m-2.91 14.647c2.431 6.334-.352 11.184-6.418 11.184-1.973 0-3.587-3.875-3.587-8.61 0-9.872 6.558-11.558 10.005-2.574m37.351 10.466c0 5.606-5.118 9.334-9.281 6.761-4.453-2.752-.613-10.348 5.23-10.348 2.228 0 4.051 1.614 4.051 3.587m-25.831 4.2c0 1.915-2.844 7.243-6.32 11.839-6.453 8.531-8.688 3.753-3.982-8.512 2.699-7.034 10.302-9.489 10.302-3.327m-31.121 8.629c1.049 3.146-.919 4.108-5.112 2.499-3.75-1.439-6.817-4.508-6.817-6.82 0-5.658 9.784-2.115 11.929 4.321m136.619.83c11.005 12.161 6.321 13.291-5.251 1.268-5.243-5.447-7.965-9.904-6.049-9.904 1.917 0 7.002 3.886 11.3 8.636m-226.91 4.279c1.571 5.211.846 5.419-3.758 1.076-3.137-2.96-8.592-5.381-12.123-5.381-4.859 0-4.388 1.628 1.937 6.695 7.981 6.394 7.908 6.477-1.605 1.854-7.485-3.638-11.499-3.566-16.144.289-4.082 3.389-6.182 3.563-6.182.513 0-12.916 34.132-17.464 37.875-5.046m142.392 15.629c-7.626 11.53-14.53 21.803-15.342 22.83-.812 1.026-3.38-.039-5.708-2.366-2.771-2.772 2.014-11.153 13.874-24.298 9.958-11.037 18.766-19.406 19.573-18.599.808.808-4.771 10.902-12.397 22.433m-8.151-13.372c-2.995 3.608-6.566 5.44-7.936 4.07-1.37-1.369.359-4.292 3.842-6.495 9.114-5.764 10.305-5.059 4.094 2.425m34.527-2.257a4.317 4.317 0 0 1-4.305 4.305 4.317 4.317 0 0 1-4.305-4.305 4.317 4.317 0 0 1 4.305-4.305 4.317 4.317 0 0 1 4.305 4.305m-123.381 5.381c1.644 4.052 3.328 3.786 6.816-1.076 4.119-5.74 5.104-5.74 8.872 0 5.413 8.245 5.429 11.754.066 15.068-2.367 1.463-4.305.609-4.305-1.899 0-2.507-2.845-4.559-6.322-4.559-3.852 0-5.354 2.524-3.845 6.458 1.371 3.572.124 6.457-2.789 6.457-3.149 0-4.362-3.464-3.017-8.61 1.239-4.735.496-8.61-1.65-8.61s-3.902-1.937-3.902-4.305c0-6.134 7.474-5.336 10.076 1.076m178.988 5.965c5.908 5.169-8.104.368-14.962-5.126-7.88-6.313-7.743-6.402 2.406-1.569 5.919 2.819 11.57 5.832 12.556 6.695m-210.589 1.569a4.318 4.318 0 0 1-4.305 4.305 4.318 4.318 0 0 1-4.306-4.305 4.318 4.318 0 0 1 4.306-4.305 4.318 4.318 0 0 1 4.305 4.305m19.372 0c1.464 2.368.724 4.305-1.644 4.305s-5.502-1.937-6.966-4.305c-1.463-2.368-.723-4.305 1.645-4.305 2.367 0 5.502 1.937 6.965 4.305m58.119 9.289c0 3.277-1.76 3.22-5.87-.191-4.724-3.92-5.638-2.762-4.684 5.93 1.343 12.237-3.028 13.916-11.053 4.246-4.62-5.566-4.213-6.094 2.701-3.499 7.194 2.701 7.454 2.21 2.235-4.206-4.167-5.122-4.409-7.264-.823-7.264 2.798 0 3.77-2.13 2.161-4.734-2.057-3.328-.213-3.283 6.203.151 5.021 2.687 9.13 6.992 9.13 9.567m114.084-9.425c7.015 2.903 6.045 3.524-5.233 3.351-7.614-.116-12.827-1.856-11.585-3.866 2.672-4.324 5.324-4.242 16.818.515M658.377 658.4c4.567 2.89 2.134 4.653-9.407 6.818-8.561 1.607-18.114 1.317-21.227-.643-5.186-3.266-2.093-4.6 22.322-9.63 1.184-.243 4.924 1.311 8.312 3.455m157.781 16.822c-3.709 7.174-8.695 14.248-11.08 15.722-2.385 1.474-4.336 4.803-4.336 7.398 0 2.595 4.208 1.028 9.351-3.483 5.142-4.51 7.934-5.779 6.203-2.82-4.262 7.289-.142 6.765 12.631-1.604 7.05-4.619 15.139-6.09 23.879-4.342 7.269 1.454 17.099.566 21.844-1.973 4.744-2.54 9.91-3.333 11.479-1.764 5.016 5.016-13.362 15.065-27.55 15.065-7.537 0-21.696 2.82-31.465 6.266-13.28 4.686-17.786 4.958-17.857 1.077-.053-2.855-3.884-.347-8.515 5.572-4.63 5.919-8.461 8.729-8.514 6.242-.053-2.486 2.326-7.236 5.286-10.555 4.588-5.145 4.255-5.181-2.257-.247-13.599 10.304-13.683.531-.118-13.801 7.249-7.66 15.507-18.452 18.351-23.982 2.844-5.53 6.125-9.101 7.291-7.934 1.167 1.167-.913 7.99-4.623 15.163m-127.347-10.343c0 1.044-1.938 3.095-4.305 4.559-2.368 1.463-4.305.609-4.305-1.899 0-2.507 1.937-4.559 4.305-4.559 2.367 0 4.305.855 4.305 1.899m94.285 12.093c-.234 7.695-1.862 24.646-3.618 37.669-2.986 22.138-3.207 21.229-3.408-13.991-.118-20.719 1.511-37.67 3.619-37.67 2.108 0 3.642 6.296 3.407 13.992m50.476 1.218c-1.333 3.474-4.24 6.316-6.459 6.316-2.256 0-1.841-4.684.941-10.622 5.091-10.866 9.899-7.113 5.518 4.306m16.679-10.905c1.463 2.368.609 4.305-1.899 4.305-2.507 0-4.559-1.937-4.559-4.305 0-2.367.854-4.305 1.899-4.305 1.044 0 3.095 1.938 4.559 4.305m-180.813 4.305c-1.464 2.368-5.452 4.305-8.864 4.305-3.412 0-6.204-1.937-6.204-4.305 0-2.367 3.989-4.305 8.864-4.305 4.876 0 7.667 1.938 6.204 4.305m25.6 11.464c-4.33 3.166-14.768 5.727-23.194 5.691-11.477-.05-13.701-1.113-8.864-4.239 3.552-2.296 10.58-4.203 15.617-4.24 5.038-.036 11.747-3.184 14.911-6.995 4.293-5.173 6.213-5.541 7.577-1.452 1.004 3.013-1.717 8.069-6.047 11.235m-48.57 2.449c8.193 12.909 3.607 14.944-11.447 5.08-7.026-4.604-14.714-5.899-23.527-3.963-15.272 3.354-17.474-2.361-3.403-8.834 11-5.061 33.085-.62 38.377 7.717m104.265 7.625c16.678 18.46 21.535 32.564 6.527 18.951-4.973-4.51-16.982-12.075-26.686-16.811-22.012-10.741-25.657-19.373-8.183-19.373 9.441 0 16.836 4.497 28.342 17.233m18.51-3.51c-1.375 3.434-2.395 2.414-2.601-2.601-.187-4.538.83-7.081 2.261-5.651 1.43 1.431 1.583 5.144.34 8.252m127.768-2.96c-4.33 11.282 1.935 19.373 15.001 19.373 14.157 0 24.391-9.573 20.652-19.318-3.375-8.794-32.283-8.838-35.653-.055m28.578 4.051c0 3.412-2.266 7.604-5.036 9.316-3.425 2.117-4.123.731-2.18-4.332 2.323-6.053 1.151-6.904-6.265-4.55-6.135 1.947-8.157 1.334-6.177-1.871 4.299-6.956 19.658-5.833 19.658 1.437m-301.217 23.932c13.208 0 17.083-1.66 17.083-7.319 0-5.373 1.273-6.045 4.791-2.527 6.951 6.951 1.352 13.239-16.076 18.051-22.986 6.347-36.114-.157-35.898-17.785l.172-14.098 6.423 11.839c5.342 9.847 9.296 11.839 23.505 11.839m-7.105-14.844c1.47 3.831.749 5.559-1.692 4.051-2.34-1.447-4.256-4.453-4.256-6.681 0-6.193 3.086-4.828 5.948 2.63m111.366 15.829c16.955 13.289 21.397 12.078 8.61-2.349-7.254-8.183-7.213-8.331 1.124-3.966 11.457 5.998 25.68 21.935 22.455 25.16-1.407 1.407-5.108.967-8.225-.978-8.415-5.248-20.736-6.441-20.736-2.008 0 6.927-16.225-.151-26.537-11.576l-10.056-11.141 16.687 9.569c23.646 13.56 24.236 8.441.739-6.405-10.76-6.797-19.566-13.88-19.571-15.739-.01-4.614 16.028 4.163 35.51 19.433m-32.133 3.32c11.324 12.483 23.305 21.578 28.52 21.652 9.436.132 36.977 22.438 36.977 29.948 0 6.728-13.168 5.039-33.835-4.339-21.411-9.715-23.676-10.193-19.979-4.21 4.763 7.706-.617 4.54-9.019-5.307-6.676-7.825-6.8-8.528-.667-3.778 9.756 7.554 9.56 6.286-3.066-19.887-5.83-12.085-14.979-25.04-20.331-28.789-5.386-3.772-7.14-6.815-3.929-6.815 3.191 0 14.589 9.686 25.329 21.525m-27.694 8.486c-3.281 3.345-10.02-10.006-9.715-19.249.219-6.662 1.575-5.689 5.994 4.306 3.14 7.103 4.815 13.827 3.721 14.943m183.597-23.616c0 1.15-11.623 7.959-25.83 15.13-30.879 15.588-33.676 13.396-5.615-4.4 18.399-11.668 31.445-16.12 31.445-10.73m4.125 17.626c-10.556 10.844-27.91 24.733-38.565 30.864-10.655 6.131-22.763 14.026-26.907 17.544-6.779 5.755-7.518 5.575-7.377-1.805.147-7.658 31.836-31.879 41.709-31.879 2.285 0 7.846-4.152 12.357-9.226 7.537-8.48 31.37-25.16 36.004-25.198 1.085-.009-6.665 8.856-17.221 19.7m103.502-13.513c0 4.544-8.262 6.453-10.719 2.477-1.488-2.406.316-4.375 4.007-4.375 3.692 0 6.712.854 6.712 1.898m-273.179 20.236c3.707 11.679-8.932 29.567-20.741 29.354-8.957-.161-8.808-.595 2.252-6.595 12.764-6.924 15.849-21.911 6.457-31.372-4.314-4.346-3.92-4.865 1.989-2.616 4.053 1.543 8.573 6.596 10.043 11.229m183.248 4.943c-7.449 7.449-10.281.394-4.241-10.564 4.973-9.024 5.712-9.236 7.21-2.064.917 4.395-.419 10.078-2.969 12.628m27.507-14.162c5.678 2.44 6.411 3.781 2.153 3.937-3.552.13-9.364-1.642-12.915-3.937-7.87-5.086-1.073-5.086 10.762 0m54.551 2.82c8.941 8.091 10.427 27.345 2.707 35.065-8.224 8.224-27.816 6.008-40.07-4.533-13.064-11.237-11.538-19.574 5.516-30.149 14.873-9.223 21.984-9.309 31.847-.383m-123.432 5.79c-1.463 2.368-4.598 4.305-6.965 4.305-2.368 0-3.108-1.937-1.645-4.305 1.464-2.368 4.598-4.305 6.966-4.305 2.368 0 3.108 1.937 1.644 4.305m93.481 1.923c-13.561 6.25-10.792 20.268 4.824 24.419 15.206 4.042 22.923 1.259 25.674-9.261 3.587-13.72-14.312-22.616-30.498-15.158m-317.344 2.382c-1.464 2.368-4.484 4.305-6.712 4.305-2.228 0-4.051-1.937-4.051-4.305 0-2.367 3.02-4.305 6.712-4.305 3.691 0 5.514 1.938 4.051 4.305m27.53 5.471c-5.696 3.678-6.075 6.68-2.153 17.091 4.203 11.156 3.572 13.59-5.405 20.864-17.182 13.922-47.955 7.344-47.955-10.251 0-2.725 3.016-.649 6.702 4.613 7.365 10.515 23.153 12.505 35.927 4.527 6.738-4.208 7.356-7.091 3.741-17.462-3.477-9.973-6.564-12.195-15.664-11.272-6.233.632-15.208 4.131-19.943 7.776-8.53 6.565-8.534 6.536-.409-3.06 5.486-6.48 12.967-9.687 22.601-9.687 7.92 0 14.401-2.051 14.401-4.559 0-2.507 1.937-3.362 4.305-1.898 2.368 1.463 4.305.286 4.305-2.616s1.453-3.758 3.229-1.902c1.775 1.856.119 5.383-3.682 7.836m32.994-3.455c10.702 8.094 3.07 8.189-11.016.137-6.898-3.944-8.353-6.207-4.051-6.305 3.691-.084 10.471 2.692 15.067 6.168m235.531-3.497c-2.915 1.179-8.726 1.251-12.915.16-4.189-1.092-1.804-2.057 5.299-2.144 7.104-.088 10.531.805 7.616 1.984m44.045 10.45c0 3.355-4.359 6.718-9.686 7.475-10.451 1.484-13.997-9.697-4.305-13.574 8.142-3.257 13.991-.707 13.991 6.099m-286.287 4.909c0 2.345-3.064 3.088-6.81 1.651-3.745-1.438-8.702-2.613-11.016-2.613s-3.122-1.756-1.796-3.901c3.056-4.945 19.622-.839 19.622 4.863m273.372-5.268c-1.463 2.368.36 4.306 4.051 4.306 3.691 0 6.712-1.938 6.712-4.306 0-2.367-1.823-4.305-4.051-4.305s-5.249 1.938-6.712 4.305m-80.003 1.605c-4.395 3.933-29.776 15.62-29.776 13.711 0-2.676 22.32-14.911 27.624-15.143 2.17-.095 3.139.55 2.152 1.432m47.417 6.449c3.98 7.437 1.931 8.237-26.755 10.453-17.086 1.319-35.909 3.603-41.828 5.074-5.92 1.472-.108-3.141 12.915-10.249 27.702-15.122 49.304-17.17 55.668-5.278m-120.025 2.446c2.922-3.522 6.282-5.434 7.466-4.25 1.184 1.184-.383 5.207-3.481 8.94-3.098 3.733-7.026 13.95-8.728 22.705l-3.096 15.919-.495-18.007c-.384-13.972-2.424-18.618-9.105-20.739-4.736-1.503-8.61-4.762-8.61-7.243 0-2.511 4.594-1.499 10.368 2.284 9.156 5.999 10.988 6.045 15.681.391m-169.858 7.386c1.833 2.966 1.188 3.806-1.601 2.082-2.57-1.588-5.799-1.065-7.175 1.162-1.377 2.227.911 4.94 5.083 6.028 5.774 1.506 5.272 2.099-2.099 2.479-10.728.553-12.387-3.689-4.521-11.555 6.34-6.34 6.514-6.343 10.313-.196m81.502 3.828c1.527 2.472.739 6.95-1.752 9.951-3.598 4.336.968 5.075 22.231 3.6 14.718-1.021 25.735-.761 24.483.578-2.615 2.795-54.96 11.929-77.37 13.5-8.289.581-19.428 2.44-24.754 4.13-5.326 1.691-9.683 2.05-9.683.799 0-5.148 19.373-19.831 26.165-19.831 4.027 0 11.895-3.81 17.485-8.467 11.415-9.51 19.08-10.917 23.195-4.26m117.303 5.215c-6.452 5.315-13.594 14.508-15.871 20.427-3.072 7.989-4.209 8.735-4.412 2.898-.269-7.757 21.536-33.053 28.455-33.012 1.958.012-1.719 4.371-8.172 9.687m106.444 3.207c9.094 2.314 2.726 3.286-21.526 3.286s-30.62-.972-21.525-3.286c7.103-1.808 16.79-3.286 21.525-3.286 4.736 0 14.422 1.478 21.526 3.286m-89.458 19.75c-6.582 3.569-10.826 8.334-9.433 10.59 1.394 2.255-1.454 4.1-6.329 4.1-4.876 0-8.865-2.809-8.865-6.243 0-8.024 12.085-15.032 25.831-14.979l10.762.042-11.966 6.49m-222.66-.838c0 4.084-12.886 6.142-15.184 2.425-1.399-2.264 1.445-4.117 6.32-4.117s8.864.762 8.864 1.692m163.593 6.918c10.024 10.025 11.331 21.526 2.446 21.526-5.536 0-23.971-21.204-23.971-27.572 0-5.777 13.491-1.988 21.525 6.046m-25.281 3.229c5.355 6.828 5.202 6.98-1.626 1.626-7.171-5.624-9.451-9.16-5.908-9.16.894 0 4.284 3.391 7.534 7.534m-15.617 50.853c17.429 16.134 18.248 17.431 4.305 6.818-26.435-20.122-44.021-36.019-34.441-31.133 4.736 2.415 18.297 13.357 30.136 24.315m-83.769-10.97c29.904 10.073 100.371 42.89 97.743 45.518-6.719 6.719-106.908-28.987-133.399-47.541l-9.491-6.648h9.704c5.337 0 21.287 3.902 35.443 8.671m309.315-6.766c-1.048 1.047-19.59 5.764-41.205 10.482-21.616 4.717-49.628 13.81-62.25 20.207-15.348 7.777-21.013 9.296-17.104 4.585 9.386-11.309-.029-8.111-14.118 4.795-12.695 11.629-12.804 11.648-6.198 1.077 9.922-15.879 28.492-25.115 68.776-34.206 32.698-7.38 76.782-11.623 72.099-6.94m-172.949 31.4c-.989 6.544-1.825 2.212-1.858-9.627-.032-11.839.778-17.193 1.799-11.898 1.022 5.295 1.049 14.981.059 21.525m5.455 21.584c-.036 1.776-1.944 6.135-4.239 9.687-3.375 5.222-4.186 4.604-4.239-3.229-.036-5.327 1.871-9.686 4.239-9.686s4.275 1.453 4.239 3.228m17.286 13.684c0 4.81-12.197 17.528-16.81 17.528-8.649 0-8.412-6.894.472-13.731 11.066-8.514 16.338-9.74 16.338-3.797m-35.926 6.951c1.402 3.654 1.388 7.805-.031 9.224-3.066 3.066-15.703-6.663-15.703-12.089 0-6.497 13.054-4.12 15.734 2.865" fill-rule="evenodd"/></svg>