<svg viewBox="0 0 800 800" xmlns="http://www.w3.org/2000/svg"><path d="M705.1375782159722,204.20571155293624 L705.3051311499295,165.15631759451225 M27.06325542447297,595.2576022464111 L26.853867987417743,555.9903669536435 M705.1375782159722,204.20571155293624 L27.06325542447297,595.2576022464111 M705.3051311499295,165.15631759451225 L26.853867987417743,555.9903669536435 M772.9408918996694,242.92179426338475 L773.1461320125823,203.85061783526692 M772.9408918996694,242.92179426338475 L705.1375782159722,204.20571155293624 M773.1461320125823,203.85061783526692 L705.3051311499295,165.15631759451225 M94.86652306462122,634.8436824054878 L94.69482270405717,595.5546638965981 M27.06325542447297,595.2576022464111 L94.86652306462122,634.8436824054878 M26.853867987417743,555.9903669536435 L94.69482270405717,595.5546638965981 M94.86652306462122,634.8436824054878 L772.9408918996694,242.92179426338475 M94.69482270405717,595.5546638965981 L773.1461320125823,203.85061783526692 M401.8667677532592,398.61336376342604 L367.9452411182167,379.03965366681064 M435.7882943883017,379.03965366681064 L401.8667677532592,398.61336376342604 M401.8667677532592,359.48769213696926 L435.7882943883017,379.03965366681064 M367.9452411182167,379.03965366681064 L401.8667677532592,359.48769213696926 M367.9565508070259,402.5464004291912 L401.8667677532592,422.1266503460581 M401.8667677532592,422.1266503460581 L401.8667677532592,398.61336376342604 M367.9565508070259,402.5464004291912 L367.9452411182167,379.03965366681064 M401.8667677532592,422.1266503460581 L435.7769846994926,402.5464004291912 M435.7769846994926,402.5464004291912 L435.7882943883017,379.03965366681064 M435.7769846994926,402.5464004291912 L401.8667677532592,382.98789909603727 M401.8667677532592,382.98789909603727 L401.8667677532592,359.48769213696926 M401.8667677532592,382.98789909603727 L367.9565508070259,402.5464004291912" stroke="black"  stroke-width="4"  fill="red"/></svg>