<svg viewBox="0 0 800 800" xmlns="http://www.w3.org/2000/svg"><path d="M693.2242580236343,555.9789234432985 L693.0397715758129,423.14987979729517 M197.10540898853094,620.9486060896589 L196.3401832021905,488.1409622695487 M693.2242580236343,555.9789234432985 L668.619846251828,588.3503048223893 M668.619846251828,588.3503048223893 L637.5960235242626,617.3495060047939 M637.5960235242626,617.3495060047939 L600.9365341009147,642.2388722479002 M600.9365341009147,642.2388722479002 L559.5694155286756,662.3845510717596 M559.5694155286756,662.3845510717596 L514.5433947387789,677.2732282189555 M514.5433947387789,677.2732282189555 L467.0012723644503,686.525160802745 M467.0012723644503,686.525160802745 L418.15062955570374,689.9042399962582 M418.15062955570374,689.9042399962582 L369.23254582448567,687.3243013541652 M369.23254582448567,687.3243013541652 L321.48998796626904,678.8511790479814 M321.48998796626904,678.8511790479814 L276.1355874514601,664.7010710961829 M276.1355874514601,664.7010710961829 L234.32065443791794,645.2347997693448 M234.32065443791794,645.2347997693448 L197.10540898853094,620.9486060896589 M693.0397715758129,423.14987979729517 L668.4065306336922,455.53191590735895 M668.4065306336922,455.53191590735895 L637.3463589196951,484.54067507209 M637.3463589196951,484.54067507209 L600.643917679255,509.4382546449565 M600.643917679255,509.4382546449565 L559.2283325337414,529.5905881274446 M559.2283325337414,529.5905881274446 L514.1495618308152,544.4841872651535 M514.1495618308152,544.4841872651535 L466.55174943913903,553.7391800628366 M466.55174943913903,553.7391800628366 L417.64389669006164,557.1193772528006 M417.64389669006164,557.1193772528006 L368.6685428656506,554.5385850012939 M368.6685428656506,554.5385850012939 L320.8701163008749,546.0626599351897 M320.8701163008749,546.0626599351897 L275.4626732462832,531.9078737457568 M275.4626732462832,531.9078737457568 L233.59887489381217,512.4351714214223 M233.59887489381217,512.4351714214223 L196.3401832021905,488.1409622695487 M283.5735083217112,243.02700891918562 L282.9110741019339,110.09576000374182 M197.10540898853094,620.9486060896589 L165.43223723709968,592.4609091336981 M165.43223723709968,592.4609091336981 L140.10139029292094,560.4965619514443 M140.10139029292094,560.4965619514443 L121.75124632065337,525.867812722839 M121.75124632065337,525.867812722839 L110.84200829331871,489.45363433256625 M110.84200829331871,489.45363433256625 L107.64474436486745,452.17700614597277 M107.64474436486745,452.17700614597277 L112.23491548977984,414.9815238434667 M112.23491548977984,414.9815238434667 L124.49112794348036,378.80729776723007 M124.49112794348036,378.80729776723007 L144.09847875187518,344.56749839790245 M144.09847875187518,344.56749839790245 L170.55717836513554,313.12526918827206 M170.55717836513554,313.12526918827206 L203.19575883288462,285.2721935905963 M203.19575883288462,285.2721935905963 L241.18784883482044,261.7087603441725 M241.18784883482044,261.7087603441725 L283.5735083217112,243.02700891918562 M196.3401832021905,488.1409622695487 L164.63008544555066,459.64387429474874 M164.63008544555066,459.64387429474874 L139.26976462606672,427.669004311663 M139.26976462606672,427.669004311663 L120.89833868499761,393.0288722174706 M120.89833868499761,393.0288722174706 L109.97653966699943,356.6027432178132 M109.97653966699943,356.6027432178132 L106.77574197636562,319.3139017094126 M106.77574197636562,319.3139017094126 L111.37148328184782,282.1062531737601 M111.37148328184782,282.1062531737601 L123.64221650928567,245.92021454997865 M123.64221650928567,245.92021454997865 L143.272660099524,211.66925215675172 M143.272660099524,211.66925215675172 L169.7624315852135,180.21678728569606 M169.7624315852135,180.21678728569606 L202.43927185507175,152.35465665863788 M202.43927185507175,152.35465665863788 L240.47584021155978,128.7835719118156 M240.47584021155978,128.7835719118156 L282.9110741019339,110.09576000374182 M283.5735083217112,243.02700891918562 L693.2242580236343,555.9789234432985 M282.9110741019339,110.09576000374182 L693.0397715758129,423.14987979729517" stroke="black"  stroke-width="4"  fill="red"/></svg>