<svg viewBox="0 0 800 800" xmlns="http://www.w3.org/2000/svg"><path d="M400,219.20645692258097 L399.99999999999994,38.567706697565654 M-69.57613132267409,489.4156653852079 L-70.09846294817208,308.47468263270355 M400,219.20645692258097 L-69.57613132267409,489.4156653852079 M399.99999999999994,38.567706697565654 L-70.09846294817208,308.47468263270355 M869.576131322674,489.4156653852079 L870.098462948172,308.4746826327036 M869.576131322674,489.4156653852079 L400,219.20645692258097 M870.098462948172,308.4746826327036 L399.99999999999994,38.567706697565654 M400,761.4322933024343 L400,580.1890713531216 M-69.57613132267409,489.4156653852079 L400,761.4322933024343 M-70.09846294817208,308.47468263270355 L400,580.1890713531216 M400,761.4322933024343 L869.576131322674,489.4156653852079 M400,580.1890713531216 L870.098462948172,308.4746826327036 M548.690847649533,213.80257296910372 L235.29148558917396,394.3211602522941 M235.29148558917396,394.3211602522941 L250.96141497080896,403.3681981989635 M250.96141497080896,403.3681981989635 L564.3607771172201,222.80944653483894 M564.3607771172201,222.80944653483894 L548.690847649533,213.80257296910372 M548.6082920736906,304.27037408337685 L548.690847649533,213.80257296910372 M235.38313798158998,484.88987540428025 L235.29148558917396,394.3211602522941 M548.6082920736906,304.27037408337685 L235.38313798158998,484.88987540428025 M251.04435702937047,493.9419590992292 L250.96141497080896,403.3681981989635 M235.38313798158998,484.88987540428025 L251.04435702937047,493.9419590992292 M564.2695112073322,313.2822932855479 L564.3607771172201,222.80944653483894 M251.04435702937047,493.9419590992292 L564.2695112073322,313.2822932855479 M564.2695112073322,313.2822932855479 L548.6082920736906,304.27037408337685" stroke="black"  stroke-width="4"  fill="red"/></svg>