<svg viewBox="0 0 800 800" xmlns="http://www.w3.org/2000/svg"><path d="" stroke="black"  stroke-width="4"  fill="red"/>
<path d="M556.3485876500894,611.1885912663322 L556.5225332290815,8.322147552740034 M243.55969393303315,791.5765775480222 L243.3855160135064,188.50825020055535 M556.3485876500894,611.1885912663322 L589.2376502445121,635.3803276624923 M589.2376502445121,635.3803276624923 L611.1371798331645,663.4102586664237 M611.1371798331645,663.4102586664237 L620.7716162678913,693.6512291311092 M620.7716162678913,693.6512291311092 L617.5770560357847,724.3466334317495 M617.5770560357847,724.3466334317495 L601.7349099319958,753.7122506475314 M601.7349099319958,753.7122506475314 L574.1623597895708,780.0400729093832 M574.1623597895708,780.0400729093832 L536.4598317077398,801.7978454455233 M536.4598317077398,801.7978454455233 L490.8184633838791,817.7186186079466 M490.8184633838791,817.7186186079466 L439.89274455278496,826.8749546390521 M439.89274455278496,826.8749546390521 L386.6457872144815,828.7333148058821 M386.6457872144815,828.7333148058821 L334.17638866654363,823.185405136612 M334.17638866654363,823.185405136612 L285.537848254536,810.5545217731897 M285.537848254536,810.5545217731897 L243.55969393303315,791.5765775480222 M556.5225332290815,8.322147552740034 L589.4482068770924,32.48679390897166 M589.4482068770924,32.48679390897166 L611.3721283289002,60.48534285889298 M611.3721283289002,60.48534285889298 L621.0173135646393,90.69246305415629 M621.0173135646393,90.69246305415629 L617.8192255125534,121.35351610359396 M617.8192255125534,121.35351610359396 L601.9594705440591,150.6862774844861 M601.9594705440591,150.6862774844861 L574.3562460324116,176.98464878791188 M574.3562460324116,176.98464878791188 L536.6117563257435,198.71808683818196 M536.6117563257435,198.71808683818196 L490.9195777766545,214.6210562399593 M490.9195777766545,214.6210562399593 L439.9371574380893,223.76715393744902 M439.9371574380893,223.76715393744902 L386.63091040399934,225.62343622718717 M386.63091040399934,225.62343622718717 L334.1030891642351,220.0817298929816 M334.1030891642351,220.0817298929816 L285.41039725002213,207.46497055881466 M285.41039725002213,207.46497055881466 L243.3855160135064,188.50825020055535 M243.55969393303315,791.5765775480222 L210.68258068364233,767.3568821215001 M210.68258068364233,767.3568821215001 L188.81616164405017,739.3053971704097 M188.81616164405017,739.3053971704097 L179.228411737664,709.0542155850337 M179.228411737664,709.0542155850337 L182.47253918044404,678.3622822329951 M182.47253918044404,678.3622822329951 L198.35577789532908,649.0130228808894 M198.35577789532908,649.0130228808894 L225.95153224900022,622.7106980108006 M225.95153224900022,622.7106980108006 L263.65406033622384,600.9817212562278 M263.65406033622384,600.9817212562278 L309.2722244549654,585.0864454958339 M309.2722244549654,585.0864454958339 L360.1568506711387,575.9464673411351 M360.1568506711387,575.9464673411351 L413.3542407882968,574.0915781209759 M413.3542407882968,574.0915781209759 L465.7769527998209,579.6292766620551 M465.7769527998209,579.6292766620551 L514.3823826640685,592.2386060663956 M514.3823826640685,592.2386060663956 L556.3485876500894,611.1885912663322 M243.3855160135064,188.50825020055535 L210.47181832377353,164.31564502205563 M210.47181832377353,164.31564502205563 L188.58108116388365,136.29554228540178 M188.58108116388365,136.29554228540178 L178.98268643536068,106.07821104545064 M178.98268643536068,106.07821104545064 L182.2304520927651,75.42062891878004 M182.2304520927651,75.42062891878004 L198.13139119262507,46.104225279810976 M198.13139119262507,46.104225279810976 L225.75787159527306,19.83135117837287 M225.75787159527306,19.83135117837287 L263.5023613073579,-1.8732913046477506 M263.5023613073579,-1.8732913046477506 L309.1712839716005,-17.750763494159855 M309.1712839716005,-17.750763494159855 L360.11252017495843,-26.88050343698319 M360.11252017495843,-26.88050343698319 L413.36908959321124,-28.73331480588206 M413.36908959321124,-28.73331480588206 L465.85012031765035,-23.20181952387361 M465.85012031765035,-23.20181952387361 L514.5096279412512,-10.60661398837567 M514.5096279412512,-10.60661398837567 L556.5225332290815,8.322147552740034" stroke="black"  stroke-width="4"  fill="red"/></svg>