<svg viewBox="0 0 800 800" xmlns="http://www.w3.org/2000/svg"><path d="M627.7806621528393,399.8743283281024 L627.8565551785248,136.8417248973078 M172.06738276900663,662.8050502430915 L171.6354034498397,399.4790973307512 M627.7806621528393,399.8743283281024 L667.8051389163959,427.992105303084 M667.8051389163959,427.992105303084 L697.5714428092001,460.08780912405854 M697.5714428092001,460.08780912405854 L715.9294347365282,494.9334146923356 M715.9294347365282,494.9334146923356 L722.1643166814717,531.193454178859 M722.1643166814717,531.193454178859 L716.0254550160677,567.4757581786084 M716.0254550160677,567.4757581786084 L697.7377167247836,602.3847616958399 M697.7377167247836,602.3847616958399 L667.9945274171191,634.5753465368643 M667.9945274171191,634.5753465368643 L627.9326172309934,662.8050502430915 M627.9326172309934,662.8050502430915 L579.0893395526184,685.982630358749 M579.0893395526184,685.982630358749 L523.3438732662825,703.2110195050439 M523.3438732662825,703.2110195050439 L462.8447933061034,713.8226965041272 M462.8447933061034,713.8226965041272 L399.92637032816714,717.4062511973918 M399.92637032816714,717.4062511973918 L337.01761219098336,713.8226965041272 M337.01761219098336,713.8226965041272 L276.5471247016344,703.2110289355592 M276.5471247016344,703.2110289355592 L220.8481342030902,685.9826460716995 M220.8481342030902,685.9826460716995 L172.06738276900663,662.8050502430915 M627.8565551785248,136.8417248973078 L667.9255817621846,164.92806897718413 M667.9255817621846,164.92806897718413 L697.7250457951834,196.98791116302831 M697.7250457951834,196.98791116302831 L716.103520006746,231.79460449005754 M716.103520006746,231.79460449005754 L722.3453985128967,268.0141764968617 M722.3453985128967,268.0141764968617 L716.1997542499297,304.2560129405541 M716.1997542499297,304.2560129405541 L697.8916902376179,339.1261040059251 M697.8916902376179,339.1261040059251 L668.1153922927045,371.2808268976367 M668.1153922927045,371.2808268976367 L628.0088488755523,399.4790973307512 M628.0088488755523,399.4790973307512 L579.1111236538247,422.63088083713546 M579.1111236538247,422.63088083713546 L523.3034927334256,439.84010136590456 M523.3034927334256,439.84010136590456 L462.73693401446474,450.4399744016438 M462.73693401446474,450.4399744016438 L399.7483321926668,454.0195433848559 M399.7483321926668,454.0195433848559 L336.7694167825274,450.4399744016438 M336.7694167825274,450.4399744016438 L276.2315143762949,439.84011078592897 M276.2315143762949,439.84011078592897 L220.47046294216338,422.63089653260096 M220.47046294216338,422.63089653260096 L171.6354034498397,399.4790973307512 M172.06738276900663,662.8050502430915 L132.08159168864643,634.5753622361665 M132.08159168864643,634.5753622361665 L102.42521491319309,602.3847742484469 M102.42521491319309,602.3847742484469 L84.23165062690498,567.4757597467581 M84.23165062690498,567.4757597467581 L78.19063956338198,531.1934541788589 M78.19063956338198,531.1934541788589 L84.52330935749501,494.933411559884 M84.52330935749501,494.933411559884 L102.97527979912184,460.08781225466277 M102.97527979912184,460.08781225466277 L132.8281566210942,427.9921021741808 M132.8281566210942,427.9921021741808 L172.92846154521263,399.8743283281024 M172.92846154521263,399.8743283281024 L221.73304307090154,376.808665633295 M221.73304307090154,376.808665633295 L277.3685661236856,359.6751703232227 M277.3685661236856,359.6751703232227 L337.70324276124927,349.126888397553 M337.70324276124927,349.126888397553 L400.42779712405576,345.5655983107374 M400.42779712405576,345.5655983107374 L463.14274397992017,349.1268930846405 M463.14274397992017,349.1268930846405 L523.4489746333369,359.6751703232228 M523.4489746333369,359.6751703232228 L579.0382941008941,376.8086687594862 M579.0382941008941,376.8086687594862 L627.7806621528393,399.8743283281024 M171.6354034498397,399.4790973307512 L131.60514895025523,371.28084257945375 M131.60514895025523,371.28084257945375 L101.91585714077792,339.1261165445441 M101.91585714077792,339.1261165445441 L83.7021770602239,304.25601450695524 M83.7021770602239,304.25601450695524 L77.65460148710326,268.01417649686164 M77.65460148710326,268.01417649686164 L83.99448572656365,231.79460136110285 M83.99448572656365,231.79460136110285 L102.46714777995055,196.9879142901355 M102.46714777995055,196.9879142901355 L132.35337750764847,164.92806585177806 M132.35337750764847,164.92806585177806 L172.49840106632882,136.8417248973078 M172.49840106632882,136.8417248973078 L221.35734372425338,113.80185844449255 M221.35734372425338,113.80185844449255 L277.05478628758004,96.68753142434497 M277.05478628758004,96.68753142434497 L337.4565752205051,86.15105325547324 M337.4565752205051,86.15105325547324 L400.25087637659783,82.59374880260822 M400.25087637659783,82.59374880260822 L463.0355486526446,86.15105793731539 M463.0355486526446,86.15105793731539 L523.4088283040262,96.68753142434497 M523.4088283040262,96.68753142434497 L579.059964457682,113.80186156718685 M579.059964457682,113.80186156718685 L627.8565551785248,136.8417248973078" stroke="black"  stroke-width="4"  fill="red"/></svg>