<svg viewBox="0 0 800 800" xmlns="http://www.w3.org/2000/svg"><path d="M277.8713093804956,186.85545346521624 L225.67374250606713,216.82523397062536 M225.67374250606713,216.82523397062536 L225.63526359085887,190.0107488218888 M277.844400953682,160.047687610771 L225.63526359085887,190.0107488218888 M277.8713093804956,186.85545346521624 L277.844400953682,160.047687610771 M859.4271796581484,521.5384686698336 L277.8713093804956,186.85545346521624 M807.2304055575129,551.8426467927933 L859.4271796581484,521.5384686698336 M807.2304055575129,551.8426467927933 L225.67374250606713,216.82523397062536 M225.63526359085887,190.0107488218888 L807.3211918521833,524.9534995677133 M807.2304055575129,551.8426467927933 L807.3211918521833,524.9534995677133 M859.5295359121932,494.6560410894009 L277.844400953682,160.047687610771 M807.3211918521833,524.9534995677133 L859.5295359121932,494.6560410894009 M859.4271796581484,521.5384686698336 L859.5295359121932,494.6560410894009" stroke="black"  stroke-width="4"  fill="red"/>
<path d="M-6.945918928034587,350.3862524601285 L-59.427656260907156,380.51919241483125 M-59.427656260907156,380.51919241483125 L-59.52953591219318,353.6681232655113 M-7.036101926364097,323.5419029303872 L-59.52953591219318,353.6681232655113 M-6.945918928034587,350.3862524601285 L-7.036101926364097,323.5419029303872 M-6.945918928034587,350.3862524601285 L574.6107608762636,686.8959574385617 M522.1282332071906,717.3660371365977 L574.6107608762636,686.8959574385617 M-59.427656260907156,380.51919241483125 L522.1282332071906,717.3660371365977 M522.1282332071906,717.3660371365977 L522.1556182538308,690.4403059603734 M-59.52953591219318,353.6681232655113 L522.1556182538308,690.4403059603734 M574.6498431027129,659.9769456231426 L-7.036101926364097,323.5419029303872 M522.1556182538308,690.4403059603734 L574.6498431027129,659.9769456231426 M574.6107608762636,686.8959574385617 L574.6498431027129,659.9769456231426" stroke="black"  stroke-width="4"  fill="red"/>
<path d="M225.67374250606713,216.82523397062536 L225.48117738635713,82.63396286340225 M-6.945918928034587,350.3862524601285 L-7.39723451045802,216.04526283683117 M225.67374250606713,216.82523397062536 L-6.945918928034587,350.3862524601285 M225.48117738635713,82.63396286340225 L-7.39723451045802,216.04526283683117 M574.6107608762636,686.8959574385617 L574.806346580152,552.180657102659 M-6.945918928034587,350.3862524601285 L574.6107608762636,686.8959574385617 M-7.39723451045802,216.04526283683117 L574.806346580152,552.180657102659 M807.2304055575129,551.8426467927933 L807.6847416494494,417.27707045691955 M574.6107608762636,686.8959574385617 L807.2304055575129,551.8426467927933 M574.806346580152,552.180657102659 L807.6847416494494,417.27707045691955 M807.2304055575129,551.8426467927933 L225.67374250606713,216.82523397062536 M807.6847416494494,417.27707045691955 L225.48117738635713,82.63396286340225" stroke="black"  stroke-width="4"  fill="red"/></svg>