<svg viewBox="0 0 800 800" xmlns="http://www.w3.org/2000/svg"><path d="" stroke="black"  stroke-width="4"  fill="red"/>
<path d="M581.1394889362954,557.3569815118274 L581.3409904983497,33.491555644651385 M218.71881528373268,766.3680327999135 L218.5169547787534,242.26868945205004 M581.1394889362954,557.3569815118274 L619.2495315161106,585.3819384250949 M619.2495315161106,585.3819384250949 L644.6303455810017,617.8553597620942 M644.6303455810017,617.8553597620942 L655.8025410885414,652.892844246579 M655.8025410885414,652.892844246579 L652.1106504069631,688.4595052506289 M652.1106504069631,688.4595052506289 L633.7626977404905,722.4878716450935 M633.7626977404905,722.4878716450935 L601.8195655211798,752.9981937616103 M601.8195655211798,752.9981937616103 L558.1345986813673,778.2139445747734 M558.1345986813673,778.2139445747734 L505.2465954970094,796.6658744265254 M505.2465954970094,796.6658744265254 L446.2322964688192,807.2782530045811 M446.2322964688192,807.2782530045811 L384.526807882524,809.432163836189 M384.526807882524,809.432163836189 L323.7228036887248,803.0019629598115 M323.7228036887248,803.0019629598115 L267.3601431627095,788.3627119816607 M267.3601431627095,788.3627119816607 L218.71881528373268,766.3680327999135 M581.3409904983497,33.491555644651385 L619.4934585181783,61.48512406282077 M619.4934585181783,61.48512406282077 L644.9025490320881,93.92218383197519 M644.9025490320881,93.92218383197519 L656.0872189772875,128.92044687178088 M656.0872189772875,128.92044687178088 L652.3912620139814,164.44730594287327 M652.3912620139814,164.44730594287327 L634.0229240935931,198.43760308186066 M634.0229240935931,198.43760308186066 L602.044260256533,228.91380107205666 M602.044260256533,228.91380107205666 L558.3106735502606,254.101356094593 M558.3106735502606,254.101356094593 L505.36378783332094,272.53265714810226 M505.36378783332094,272.53265714810226 L446.2837724887653,283.1331728101985 M446.2837724887653,283.1331728101985 L384.5095650743626,285.2846760493388 M384.5095650743626,285.2846760493388 L323.6378478586139,278.8616628351185 M323.6378478586139,278.8616628351185 L267.21242908316356,264.2387770335241 M267.21242908316356,264.2387770335241 L218.5169547787534,242.26868945205004 M218.71881528373268,766.3680327999135 L180.62723323348794,738.2998819878317 M180.62723323348794,738.2998819878317 L155.29757166770858,705.7931619521413 M155.29757166770858,705.7931619521413 L144.1975021772484,670.7399023055257 M144.1975021772484,670.7399023055257 L147.96596922738917,635.1786035664331 M147.96596922738917,635.1786035664331 L166.37740587275633,601.1755084329465 M166.37740587275633,601.1755084329465 L198.35638629682782,570.704577246255 M198.35638629682782,570.704577246255 L242.0413531514514,545.5333130382978 M242.0413531514514,545.5333130382978 L294.8935081478755,527.1207741270965 M294.8935081478755,527.1207741270965 L353.84432318666717,516.5336668329995 M353.84432318666717,516.5336668329995 L415.47323537563864,514.3851182786457 M415.47323537563864,514.3851182786457 L476.20511353018594,520.7995439739277 M476.20511353018594,520.7995439739277 L532.5166215606599,535.4054962450728 M532.5166215606599,535.4054962450728 L581.1394889362954,557.3569815118274 M218.5169547787534,242.26868945205004 L180.38298840328503,214.23192745653765 M180.38298840328503,214.23192745653765 L155.02516431386601,181.7615692365304 M155.02516431386601,181.7615692365304 L143.91278102271247,146.74753115201034 M143.91278102271247,146.74753115201034 L147.68548490323516,111.22603430596325 M147.68548490323516,111.22603430596325 L166.11744819219842,77.2610082398594 M166.11744819219842,77.2610082398594 L198.1320400741291,46.82420088631318 M198.1320400741291,46.82420088631318 L241.8656267952785,21.681132137899567 M241.8656267952785,21.681132137899567 L294.77658448424984,3.2892217317969425 M294.77658448424984,3.2892217317969425 L353.79297444967955,-7.28602283439966 M353.79297444967955,-7.28602283439966 L415.4904349179763,-9.432163836189034 M415.4904349179763,-9.432163836189034 L476.2898654574079,-3.024925685672656 M476.2898654574079,-3.024925685672656 L532.6640178119538,11.564661656716112 M532.6640178119538,11.564661656716112 L581.3409904983497,33.491555644651385" stroke="black"  stroke-width="4"  fill="red"/></svg>