<svg viewBox="0 0 800 800" xmlns="http://www.w3.org/2000/svg"><path d="M638.9012824296633,316.5561367323668 L639.0919922058681,206.1194770816778 M639.0919922058681,206.1194770816778 L667.2200636258722,224.42066680361535 M667.2200636258722,224.42066680361535 L691.1648715907122,244.6154611069362 M691.1648715907122,244.6154611069362 L710.5459679841861,266.3895760869379 M710.5459679841861,266.3895760869379 L725.0531476330434,289.40329493807934 M725.0531476330434,289.40329493807934 L734.4515755861235,313.2965879803617 M734.4515755861235,313.2965879803617 L738.5859755362646,337.69460148216285 M738.5859755362646,337.69460148216285 L737.3834242839378,362.2134439887562 M737.3834242839378,362.2134439887562 L730.8550579991568,386.4661940696694 M730.8550579991568,386.4661940696694 L719.096300490829,410.0689990404959 M719.096300490829,410.0689990404959 L702.2859277550594,432.64722775210026 M702.2859277550594,432.64722775210026 L680.6835959786083,453.8415040615689 M680.6835959786083,453.8415040615689 L654.6261737485308,473.313624177332 M654.6261737485308,473.313624177332 L624.5225608870824,490.7520839643622 M624.5225608870824,490.7520839643622 L590.8474804560319,505.8773046443962 M590.8474804560319,505.8773046443962 L554.1339741627728,518.4463440950217 M554.1339741627728,518.4463440950217 L514.9647956321912,528.2569562292056 M514.9647956321912,528.2569562292056 L473.963079316442,535.1511016113905 M473.963079316442,535.1511016113905 L431.78213219917876,539.0175842618812 M431.78213219917876,539.0175842618812 L389.09472542373453,539.7940195788192 M389.09472542373453,539.7940195788192 L346.5819577144864,537.4678654457828 M346.5819577144864,537.4678654457828 L304.92207924350714,532.0766681289106 M304.92207924350714,532.0766681289106 L264.77923553829385,523.707399308927 M264.77923553829385,523.707399308927 L226.79259461132193,512.4949844240759 M226.79259461132193,512.4949844240759 L191.5658543398518,498.61994527749846 M191.5658543398518,498.61994527749846 L159.6574504958721,482.3053397717977 M159.6574504958721,482.3053397717977 L131.57152621002336,463.81299725135676 M131.57152621002336,463.81299725135676 L107.74998939403486,443.43906160255705 M107.74998939403486,443.43906160255705 L88.56554207665278,421.5090727265868 M88.56554207665278,421.5090727265868 L74.31603308775004,398.3725412844415 M74.31603308775004,398.3725412844415 L65.22009801625848,374.39721871334456 M65.22009801625848,374.39721871334456 L61.4140244637353,349.9631025348406 M61.4140244637353,349.9631025348406 L62.950096880004025,325.4563578438148 M62.950096880004025,325.4563578438148 L69.79623245896835,301.26314069397955 M69.79623245896835,301.26314069397955 L81.83703020103871,277.76356950360287 M81.83703020103871,277.76356950360287 L98.87598290590233,255.3257947937549 M98.87598290590233,255.3257947937549 L120.63908618443543,234.30035932681398 M120.63908618443543,234.30035932681398 L146.77937286344803,215.01485653229133 M146.77937286344803,215.01485653229133 L176.8827278660179,197.7690692367627 M176.8827278660179,197.7690692367627 L210.47444385874013,182.8304698204798 M210.47444385874013,182.8304698204798 L247.02672497432326,170.4302698681305 M247.02672497432326,170.4302698681305 L285.96694417232675,160.76010805629383 M285.96694417232675,160.76010805629383 L326.68633897986274,153.96920708720108 M326.68633897986274,153.96920708720108 L368.5493516949124,150.16226960998233 M368.5493516949124,150.16226960998233 L410.90319950597,149.39793256136997 M410.90319950597,149.39793256136997 L453.087733640407,151.68798293072496 M453.087733640407,151.68798293072496 L494.44533772479895,156.9971378883032 M494.44533772479895,156.9971378883032 L534.3308418125392,165.2435910746365 M534.3308418125392,165.2435910746365 L572.1212566301554,176.300129283981 M572.1212566301554,176.300129283981 L607.2252137744831,189.99602515411442 M607.2252137744831,189.99602515411442 L639.0919922058681,206.1194770816778 M638.9012824296633,316.5561367323668 L607.0698914280399,300.41461246121406 M607.0698914280399,300.41461246121406 L572.0048803526649,286.7033560670984 M572.0048803526649,286.7033560670984 L534.2563624855014,275.6344113444921 M534.2563624855014,275.6344113444921 L494.41505571689015,267.37870126281587 M494.41505571689015,267.37870126281587 L453.10326565918507,262.06358500213474 M453.10326565918507,262.06358500213474 L410.96545539092,259.7709628944597 M410.96545539092,259.7709628944597 L368.6585213870643,260.5361583236645 M368.6585213870643,260.5361583236645 L326.841889815505,264.3473707510891 M326.841889815505,264.3473707510891 L286.16762847383256,271.145895858161 M286.16762847383256,271.145895858161 L247.27059792709633,280.8269107800507 M247.27059792709633,280.8269107800507 L210.75889142767187,293.241021705348 M210.75889142767187,293.241021705348 L177.20450460610306,308.1963705961403 M177.20450460610306,308.1963705961403 L147.13464905079067,325.4614817815036 M147.13464905079067,325.4614817815036 L121.0235039426787,344.76857815905635 M121.0235039426787,344.76857815905635 L99.28472066707286,365.8175363608622 M99.28472066707286,365.8175363608622 L82.26487462561795,388.2803920163162 M82.26487462561795,388.2803920163162 L70.23765715986787,411.8062068093895 M70.23765715986787,411.8062068093895 L63.399346678051074,436.02641631779375 M63.399346678051074,436.02641631779375 L61.86520426670904,460.56047639396814 M61.86520426670904,460.56047639396814 L65.66726485355508,485.02180017680524 M65.66726485355508,485.02180017680524 L74.75329004932564,509.02379344256246 M74.75329004932564,509.02379344256246 L88.98713258230902,532.1860380346504 M88.98713258230902,532.1860380346504 L108.15039030744799,554.1403769776487 M108.15039030744799,554.1403769776487 L131.94553805943735,574.536915585707 M131.94553805943735,574.536915585707 L160.0002833075703,593.0497574906899 M160.0002833075703,593.0497574906899 L191.87320749181166,609.3824355461372 M191.87320749181166,609.3824355461372 L227.0607290530779,623.2728354084168 M227.0607290530779,623.2728354084168 L265.00503710694863,634.4976569721796 M265.00503710694863,634.4976569721796 L305.1031116789858,642.8761828172555 M305.1031116789858,642.8761828172555 L346.71650435738417,648.2733415293928 M346.71650435738417,648.2733415293928 L389.1818186738276,650.60206743863 M389.1818186738276,650.60206743863 L431.8215702058742,649.8247737284125 M431.8215702058742,649.8247737284125 L473.95542941271833,645.9540160593119 M473.95542941271833,645.9540160593119 L514.9113845877241,639.0522464259366 M514.9113845877241,639.0522464259366 L554.0368653350272,629.2307810365726 M554.0368653350272,629.2307810365726 L590.7094383976935,616.647830435161 M590.7094383976935,616.647830435161 L624.3470040883853,601.5058600786674 M624.3470040883853,601.5058600786674 L654.4171166461713,584.0480761931808 M654.4171166461713,584.0480761931808 L680.4455812134495,564.554362292203 M680.4455812134495,564.554362292203 L702.0239500926953,543.3365630600742 M702.0239500926953,543.3365630600742 L718.8157240332891,520.7332532438338 M718.8157240332891,520.7332532438338 L730.5615280004747,497.1042045599523 M730.5615280004747,497.1042045599523 L737.0827754002501,472.82446205993904 M737.0827754002501,472.82446205993904 L738.2841379522379,448.27830415468543 M738.2841379522379,448.27830415468543 L734.1544807984235,423.8530830888539 M734.1544807984235,423.8530830888539 L724.7666352114109,399.9331194374021 M724.7666352114109,399.9331194374021 L710.275694934571,376.8936875725294 M710.275694934571,376.8936875725294 L690.9162254671805,355.0952226974066 M690.9162254671805,355.0952226974066 L666.9980808379526,334.8778256310502 M666.9980808379526,334.8778256310502 L638.9012824296633,316.5561367323668 M562.8468176585611,305.19247651127904 L467.1099160245856,250.10299633462176 M467.1099160245856,250.10299633462176 L371.37301439061,305.19247651127904 M371.37301439061,305.19247651127904 L467.1099160245856,360.4046504077063 M467.1099160245856,360.4046504077063 L562.8468176585611,305.19247651127904 M562.7936009261354,360.49692713582704 L562.8468176585611,305.19247651127904 M467.1099160245856,305.37661996246095 L467.1099160245856,250.10299633462176 M562.7936009261354,360.49692713582704 L467.1099160245856,305.37661996246095 M467.1099160245856,415.7399283707921 L467.1099160245856,360.4046504077063 M467.1099160245856,415.7399283707921 L562.7936009261354,360.49692713582704 M371.4262311230358,360.496927135827 L371.37301439061,305.19247651127904 M371.4262311230358,360.496927135827 L467.1099160245856,415.7399283707921 M467.1099160245856,305.37661996246095 L371.4262311230358,360.496927135827" stroke="black"  stroke-width="4"  fill="red"/></svg>