<svg viewBox="0 0 800 800" xmlns="http://www.w3.org/2000/svg"><path d="M224.15431989973305,189.9573487299117 L-10.468417657988482,324.6084041209921 M-10.468417657988482,324.6084041209921 L-10.832578994786616,216.21020943579217 M223.99894140251354,81.68001337441547 L-10.832578994786616,216.21020943579217 M224.15431989973305,189.9573487299117 L223.99894140251354,81.68001337441547 M810.71874128477,527.7092028543154 L224.15431989973305,189.9573487299117 M576.096020635429,663.8650657710057 L810.71874128477,527.7092028543154 M-10.468417657988482,324.6084041209921 L576.096020635429,663.8650657710057 M576.096020635429,663.8650657710057 L576.2538366788104,555.164709562516 M-10.832578994786616,216.21020943579217 L576.2538366788104,555.164709562516 M811.0853401074636,419.1297112943868 L223.99894140251354,81.68001337441547 M810.71874128477,527.7092028543154 L811.0853401074636,419.1297112943868 M576.2538366788104,555.164709562516 L811.0853401074636,419.1297112943868" stroke="black"  stroke-width="4"  fill="red"/>
<path d="M270.9826769586886,190.13200803380343 L270.9542476104278,163.0986575217717 M-57.41654988108377,378.6858686038 L-57.51797228911056,351.6103573532626 M270.9826769586886,190.13200803380343 L-57.41654988108377,378.6858686038 M270.9542476104278,163.0986575217717 L-57.51797228911056,351.6103573532626 M529.0168452548103,718.3199866255845 L529.0457717328054,691.1691871367971 M-57.41654988108377,378.6858686038 L529.0168452548103,718.3199866255845 M-57.51797228911056,351.6103573532626 L529.0457717328054,691.1691871367971 M857.416052768538,527.659390230345 L857.5179722891105,500.55075177336965 M529.0168452548103,718.3199866255845 L857.416052768538,527.659390230345 M529.0457717328054,691.1691871367971 L857.5179722891105,500.55075177336965 M857.416052768538,527.659390230345 L270.9826769586886,190.13200803380343 M857.5179722891105,500.55075177336965 L270.9542476104278,163.0986575217717" stroke="black"  stroke-width="4"  fill="red"/></svg>